<svg xmlns="http://www.w3.org/2000/svg" viewBox="0 0 500 500"><g id="freepik--Floor--inject-83"><ellipse id="freepik--floor--inject-83" cx="249.06" cy="344.38" rx="237.19" ry="141.1" style="fill:#f5f5f5"></ellipse></g><g id="freepik--Shadows--inject-83"><path id="freepik--Shadow--inject-83" d="M104.63,401.16l119,68.72c4.88,2.82,12.78,2.82,17.66,0L472.16,336.6c4.88-2.82,4.88-7.38,0-10.2l-119-68.71c-4.88-2.82-12.78-2.82-17.66,0L104.63,391C99.75,393.78,99.75,398.35,104.63,401.16Z" style="fill:#e0e0e0"></path><path id="freepik--shadow--inject-83" d="M157.94,413.68,61.53,358c-4.79-2.76-4.79-7.24,0-10L271.68,226.68c4.78-2.76,12.54-2.76,17.32,0l96.42,55.67c4.78,2.76,4.78,7.23,0,10L175.27,413.68C170.48,416.44,162.73,416.44,157.94,413.68Z" style="fill:#e0e0e0"></path><path id="freepik--shadow--inject-83" d="M80.53,365.59c11.47,6.69,11.47,17.55,0,24.24s-30.05,6.7-41.52,0-11.47-17.55,0-24.24S69.07,358.89,80.53,365.59Z" style="fill:#e0e0e0"></path></g><g id="freepik--Pictures--inject-83"><g id="freepik--Picture--inject-83"><g id="freepik--Frame--inject-83"><polygon points="397.36 94.25 395.55 95.33 358.5 73.93 360.3 72.86 397.36 94.25" style="fill:#fafafa"></polygon><polygon points="360.3 72.86 395.55 93.2 395.55 56.29 360.3 35.96 360.3 72.86" style="fill:#fff"></polygon><path d="M355.09,75.9,399,101.23V54.32L355.09,29Zm3.41-41,37.05,21.39v39L358.5,73.93Z" style="fill:#f0f0f0"></path><polygon points="358.5 73.93 360.3 72.86 360.3 35.96 358.5 34.9 358.5 73.93" style="fill:#e0e0e0"></polygon><polygon points="355.09 28.99 356.92 27.94 400.79 53.27 398.96 54.32 355.09 28.99" style="fill:#fafafa"></polygon><polygon points="400.79 53.27 398.96 54.32 398.96 101.23 400.79 100.18 400.79 53.27" style="fill:#e0e0e0"></polygon></g><g id="freepik--Family--inject-83"><path d="M388.35,87.71l-1.42-15.87-.29-.16,0,15.06s-4.71-2.8-4.85-2.8-.92-4-1.32-5.33a11.18,11.18,0,0,0-.93-2.55,5.27,5.27,0,0,0-1.85-2l-2.53-1.46c-1.27-.74-2.16-.48-2.68.77-.46,1.1-1.55,4.31-1.55,4.31L366,74.83l1.41-10.21-.21-.21c-.46,1.51-1.91,10-1.91,10L362.82,73s2.25-12.8,2.67-14.22a2.32,2.32,0,0,1,1.08-1.63c.7-.27,1.91.39,2.77.91,1.2.71,2.41,1.35,3.61,2.09a8.89,8.89,0,0,1,1.37,1.16c.21.2.33.3.42,0s.2-.45.3-.68c.79-1.66,2.07-2,3.85-1,2,1.1,4.72,2.71,6.68,3.86a8,8,0,0,1,3.63,4.84c.66,2.33,2,21.08,2,21.08ZM374,67.85a5.7,5.7,0,0,0,2.29,4.51c1.37.81,2.44.07,2.46-1.69a5.71,5.71,0,0,0-2.3-4.56C375.09,65.29,374,66,374,67.85Z" style="fill:#f0f0f0"></path><path d="M381.81,60.13a8,8,0,0,1-3.33-6.45c0-2.43,1.55-3.53,3.38-2.44a8,8,0,0,1,3.32,6.5C385.16,60.14,383.65,61.21,381.81,60.13Z" style="fill:#f0f0f0"></path><path d="M374.39,55.13c0,2.5-1.47,3.63-3.33,2.56a8,8,0,0,1-3.35-6.4c0-2.5,1.49-3.62,3.37-2.53A7.94,7.94,0,0,1,374.39,55.13Z" style="fill:#f0f0f0"></path><path d="M373.79,77.05v2.26l-.93-.54s.57-1.3.85-1.78Z" style="fill:#f0f0f0"></path><path d="M379,82.31V80.05l.08,0c.28.81.86,2.78.86,2.78Z" style="fill:#f0f0f0"></path></g></g><g id="freepik--picture--inject-83"><g id="freepik--frame--inject-83"><polygon points="464.58 144.55 462.77 145.63 425.72 124.23 427.52 123.15 464.58 144.55" style="fill:#fafafa"></polygon><polygon points="427.52 123.15 462.77 143.5 462.77 106.59 427.52 86.25 427.52 123.15" style="fill:#fff"></polygon><path d="M422.31,126.2l43.87,25.33V104.62L422.31,79.29Zm3.41-41,37,21.39v39l-37-21.4Z" style="fill:#f0f0f0"></path><polygon points="425.72 124.23 427.52 123.15 427.52 86.25 425.72 85.19 425.72 124.23" style="fill:#e0e0e0"></polygon><polygon points="422.31 79.29 424.14 78.24 468.01 103.57 466.18 104.62 422.31 79.29" style="fill:#fafafa"></polygon><polygon points="468.01 103.57 466.18 104.62 466.18 151.53 468.01 150.48 468.01 103.57" style="fill:#e0e0e0"></polygon></g><g id="freepik--Land--inject-83"><polygon points="428.9 122.05 461.4 140.81 461.4 131.43 453.27 112.67 448.21 117.36 450.03 125.22 438.81 101.23 428.9 112.67 428.9 122.05" style="fill:#f0f0f0"></polygon><path d="M448.52,103.61a5.33,5.33,0,0,1,2.4,4.16c0,1.54-1.08,2.16-2.4,1.39a5.3,5.3,0,0,1-2.41-4.16C446.11,103.47,447.19,102.84,448.52,103.61Z" style="fill:#f0f0f0"></path></g></g><g id="freepik--picture--inject-83"><g id="freepik--frame--inject-83"><polygon points="116.54 93.88 118.35 94.96 155.4 73.56 153.6 72.49 116.54 93.88" style="fill:#fafafa"></polygon><polygon points="153.6 72.49 118.35 92.83 118.35 55.92 153.6 35.59 153.6 72.49" style="fill:#fff"></polygon><path d="M158.81,28.63,114.94,54v46.91l43.87-25.33ZM155.4,73.56,118.35,95v-39L155.4,34.53Z" style="fill:#f0f0f0"></path><polygon points="155.4 73.56 153.6 72.49 153.6 35.59 155.4 34.53 155.4 73.56" style="fill:#e0e0e0"></polygon><polygon points="158.81 28.63 156.98 27.58 113.11 52.91 114.94 53.95 158.81 28.63" style="fill:#fafafa"></polygon><polygon points="113.11 52.91 114.94 53.95 114.94 100.86 113.11 99.81 113.11 52.91" style="fill:#e0e0e0"></polygon></g><g id="freepik--Text--inject-83"><path d="M127.15,63.85a2.55,2.55,0,0,1-.94,1.58c-.59.34-.94-.14-.94-.89a2.59,2.59,0,0,1,1-2.11.72.72,0,0,1,.29-.1,12.46,12.46,0,0,1-.73-3.31c0-1.78.85-4.11,2.14-4.85.8-.46,1.34,0,1.34,1.1a5.37,5.37,0,0,1-1.81,3.95c-.24.14-.46,0-.46-.52a.31.31,0,0,1,.07-.23s.08.06.18,0a3.91,3.91,0,0,0,1.31-2.6c0-.54-.21-.88-.66-.62-.83.48-1.39,2-1.39,3.4s.71,2.26.74,4c.38.35.71.82,1.08.61s.64-1.15.64-1.65c0-.12,0-.18,0-.24a.21.21,0,0,1,.11-.16c.32-.18.5,0,.5.34a3.44,3.44,0,0,1-1.16,2.75C127.94,64.56,127.52,64.2,127.15,63.85Zm-1.24.27c0,.26.11.45.32.33a1.43,1.43,0,0,0,.42-1,.4.4,0,0,0-.41,0A.83.83,0,0,0,125.91,64.12Z" style="fill:#f0f0f0"></path><path d="M133.77,58.79a2.74,2.74,0,0,1-1.09,2,1,1,0,0,1-.44.16,2.72,2.72,0,0,1-1.08,1.62c-.91.53-1.31-.43-1.31-1.82a7.25,7.25,0,0,1,.91-3.8c.24-.13.42.5.18.87a6.53,6.53,0,0,0-.41,2.46c0,1.16.3,1.57.65,1.37a1.41,1.41,0,0,0,.53-.84,2.63,2.63,0,0,1-.65-2.09,2.46,2.46,0,0,1,.73-2c.42-.24.76.54.76,1.89a9.38,9.38,0,0,1-.12,1.57.55.55,0,0,0,.18-.08,1.78,1.78,0,0,0,.65-1.37C133.29,58.35,133.89,58,133.77,58.79Zm-1.89,1c0-.24,0-.45,0-.66,0-.94,0-1.62-.22-1.51s-.15.31-.15.74A2.6,2.6,0,0,0,131.88,59.82Z" style="fill:#f0f0f0"></path><path d="M133.26,56.36a3.35,3.35,0,0,0,0-.42.48.48,0,0,1,.23-.37c.3-.18.49,0,.49.33v3.72c0,.27,0,.41.2.32.44-.26.94-1.49.94-3.1,0-1.12-.25-1.27-.37-1.34s-.12,0-.12,0a1.48,1.48,0,0,1,.37-.89c.36-.21.8.74.8,1.93,0,1.88-.68,3.82-1.74,4.43-.58.33-.76-.17-.76-.92Z" style="fill:#f0f0f0"></path><path d="M136.92,57.47c.12.4.37.65.84.38a3.16,3.16,0,0,0,1.09-2.38c.08-.67.59-.68.55-.18-.06.88-.42,2.77-1.74,3.53-.82.47-1.6-.09-1.6-1.82s.69-3.47,1.38-3.87c.5-.29.81.1.81.93A5.38,5.38,0,0,1,136.92,57.47Zm-.11-.7a3.89,3.89,0,0,0,.74-2.29c0-.31-.07-.45-.19-.38-.44.26-.58,1.86-.56,2.43C136.8,56.61,136.81,56.69,136.81,56.77Z" style="fill:#f0f0f0"></path><path d="M144.92,54.63c-.48.27-.76-.16-.76-.87V51c0-.43,0-.78-.17-.69a5.86,5.86,0,0,0-.81,2.75v2c0,.27,0,.6-.25.75s-.43.15-.43-.36V51.91c0-.43,0-.78-.17-.69a5.74,5.74,0,0,0-.81,2.75v2c0,.26,0,.59-.26.74s-.43.15-.43-.36V52c0-.27,0-.33,0-.43a.48.48,0,0,1,.23-.37c.3-.17.49,0,.49.33v.58a3.34,3.34,0,0,1,.95-1.88c.54-.31.7.28.71.89a3.18,3.18,0,0,1,.95-1.84c.58-.34.72.34.72,1v2.87c0,.12,0,.64.23.5s.52-1.19.6-1.84a.78.78,0,0,1,.22-.55c.14-.08.32.13.32.39a.51.51,0,0,1,0,.1C146,52.73,145.69,54.18,144.92,54.63Z" style="fill:#f0f0f0"></path><path d="M149.13,49.37c.14-.08.32.12.32.39a1,1,0,0,1,0,.14,12.09,12.09,0,0,1-1.32,3.83v2.4c0,1.46-.47,2.24-.93,2.51s-.87-.21-.87-1.09A7.36,7.36,0,0,1,147.44,54V52.23a2.68,2.68,0,0,1-.88,1.47c-.61.34-1-.24-1-1.45a22.36,22.36,0,0,1,.33-3.3c.06-.27,0-.52.47-.79s.19.45.15.68a17.88,17.88,0,0,0-.26,2.95c0,.75.15,1.06.41.91s.63-1.27.74-2.3V48.17a3.6,3.6,0,0,0,0-.42.47.47,0,0,1,.24-.37c.29-.17.48,0,.48.33v4.86a10.9,10.9,0,0,0,.8-2.66C149,49.59,149,49.42,149.13,49.37Zm-1.69,7.16V55a4.78,4.78,0,0,0-.49,2.1c0,.43.09.71.24.63S147.44,56.79,147.44,56.53Z" style="fill:#f0f0f0"></path><path d="M128.31,81.39c-.23.13-.59-.2-.59-.47s.06-.1.15-.16.24-.44.24-1.14V77.44l-.47.27c-.19.11-.32-.21-.32-.5a.42.42,0,0,1,.13-.36l.66-.38V72A4.62,4.62,0,0,0,126,76.19a2,2,0,0,0,.51,1.59c.1-.1.13,0,.13.12a1.6,1.6,0,0,1-.43,1.07.12.12,0,0,1-.13,0c-.27-.14-.8-.9-.8-2.37a6.48,6.48,0,0,1,3.28-6c.49-.29,1.85-1,2-1.16a1,1,0,0,0,.26-.25c.06,0,.12.17.12.38a1.22,1.22,0,0,1-.41,1l-1.74,1v4.53l1.12-.65c.28-.48.13.9-.08,1l-1,.6v2.35C128.81,80.61,128.6,81.22,128.31,81.39Z" style="fill:#f0f0f0"></path><path d="M133.63,75.36c0-.31.13-.49.22-.54s.31.12.31.39v.1c-.16,1-.52,2.46-1.29,2.9a.45.45,0,0,1-.69-.16,2.12,2.12,0,0,1-.78,1c-.7.41-1.07-.3-1.07-1.47,0-2.32,1-4.33,2.14-5,.25-.14.42,0,.42.35s0,.33-.12.38-.17.07-.26.12c-.68.4-1.49,1.76-1.49,3.76,0,.72.2,1,.52.84a1.66,1.66,0,0,0,.5-1V74.92c0-.26,0-.32,0-.42a.46.46,0,0,1,.23-.37c.29-.17.48,0,.48.33v2.28c0,.31.09.59.31.47S133.55,76,133.63,75.36Z" style="fill:#f0f0f0"></path><path d="M137.76,75.39c-.48.28-.76-.16-.76-.86V71.71c0-.43,0-.78-.17-.69a5.75,5.75,0,0,0-.81,2.76v2c0,.26,0,.59-.25.74s-.43.15-.43-.36v-3.5c0-.43,0-.79-.18-.7a5.87,5.87,0,0,0-.81,2.76v2c0,.26,0,.59-.25.74s-.43.15-.43-.36V72.75a3.35,3.35,0,0,0,0-.42.47.47,0,0,1,.24-.37c.3-.18.48,0,.48.33v.58a3.27,3.27,0,0,1,1-1.88c.54-.31.69.28.71.89A3.18,3.18,0,0,1,137,70c.59-.34.72.35.72,1v2.87c0,.13,0,.64.24.5s.52-1.18.6-1.84c0-.31.13-.49.22-.54s.31.12.31.39a.58.58,0,0,1,0,.1C138.88,73.5,138.53,75,137.76,75.39Z" style="fill:#f0f0f0"></path><path d="M138.49,67.07a1.43,1.43,0,0,1,.54-1.16c.32-.18.55,0,.55.53A1.41,1.41,0,0,1,139,67.6C138.74,67.77,138.49,67.53,138.49,67.07Zm.75,5.91c0,.13,0,.64.24.5s.52-1.18.6-1.84c.1-.91.59-.54.52,0-.16,1-.51,2.46-1.29,2.9-.47.28-.75-.16-.75-.86v-3.7a3.13,3.13,0,0,0,0-.42.5.5,0,0,1,.24-.38c.29-.17.48,0,.48.33Z" style="fill:#f0f0f0"></path><path d="M142.6,70.45c-.16.84-.6,2.49-1.42,3s-1.07-.12-1.07-1.22V65.9a2.82,2.82,0,0,1,.82-2.25c.8-.46.8,1,.8,1.77A23.85,23.85,0,0,1,140.8,71v.8c0,.56.14.88.47.69s.73-1.29.81-2C142.18,69.62,142.67,70,142.6,70.45Zm-1.8-1.3a19.76,19.76,0,0,0,.38-3.39c0-.92-.1-1.28-.25-1.19s-.13.41-.13.63Z" style="fill:#f0f0f0"></path><path d="M145.51,68.09c.14-.08.31.12.31.39a1,1,0,0,1,0,.14,12.28,12.28,0,0,1-1.31,3.84v2.39c0,1.46-.48,2.24-.94,2.51s-.86-.21-.86-1.09a7.39,7.39,0,0,1,1.11-3.56V71a2.57,2.57,0,0,1-.88,1.47c-.6.35-1-.24-1-1.45a23.23,23.23,0,0,1,.32-3.3c.06-.27,0-.51.48-.79s.18.45.14.68a18,18,0,0,0-.26,3c0,.75.15,1.06.42.91s.62-1.26.73-2.3V66.89c0-.26,0-.32,0-.42a.46.46,0,0,1,.23-.37c.3-.17.49,0,.49.33v4.86a11.37,11.37,0,0,0,.79-2.66C145.34,68.31,145.42,68.14,145.51,68.09Zm-1.7,7.16V73.77a4.7,4.7,0,0,0-.48,2.09c0,.43.09.71.23.63S143.81,75.51,143.81,75.25Z" style="fill:#f0f0f0"></path></g></g><g id="freepik--picture--inject-83"><g id="freepik--frame--inject-83"><polygon points="48.3 133.28 50.11 134.36 87.16 112.96 85.36 111.89 48.3 133.28" style="fill:#fafafa"></polygon><polygon points="85.36 111.89 50.11 132.23 50.11 95.32 85.36 74.99 85.36 111.89" style="fill:#fff"></polygon><path d="M90.57,68,46.7,93.35v46.91l43.87-25.33ZM87.16,113l-37,21.4v-39L87.16,73.93Z" style="fill:#f0f0f0"></path><polygon points="87.16 112.96 85.36 111.89 85.36 74.99 87.16 73.93 87.16 112.96" style="fill:#e0e0e0"></polygon><polygon points="90.57 68.03 88.74 66.98 44.87 92.31 46.7 93.35 90.57 68.03" style="fill:#fafafa"></polygon><polygon points="44.87 92.31 46.7 93.35 46.7 140.26 44.87 139.21 44.87 92.31" style="fill:#e0e0e0"></polygon></g><g id="freepik--Paws--inject-83"><path d="M57.06,110.2a14.77,14.77,0,0,1,.77-4.61c1-2.7,3.06-4.5,4.57-3.88a6.7,6.7,0,0,1,1.94,1.4,2.7,2.7,0,0,1,.15,2.72,4.19,4.19,0,0,1-2.22,2.41,1.71,1.71,0,0,1-.54.07c-.36,0-.64.29-.91.79s-.56,1-.84,1.44a2.72,2.72,0,0,1-1.66,1.34C57.49,112.12,57.05,111.51,57.06,110.2Z" style="fill:#f0f0f0"></path><path d="M61,95.47a.9.9,0,0,1,1.15.17c.64.68.7,2.25.14,3.59-.49,1.17-1.32,1.83-2,1.59-.93-.32-1.2-2.16-.55-3.77A3,3,0,0,1,61,95.47Z" style="fill:#f0f0f0"></path><path d="M58.69,101.14a3.88,3.88,0,0,1-.84,2.59c-.62.77-1.21.87-1.71.59-.7-.4-1-1.26-.79-2.6s1.2-2.62,2.11-2.5S58.65,100.08,58.69,101.14Z" style="fill:#f0f0f0"></path><path d="M66,97.61a5.24,5.24,0,0,1-.89,3c-.69,1-1.5,1.17-1.87.4a4.46,4.46,0,0,1,.72-3.81c.71-1,1.52-1.14,1.86-.33A5.25,5.25,0,0,1,66,97.61Z" style="fill:#f0f0f0"></path><path d="M56.78,107.14a2.74,2.74,0,0,1-1.57,2.64c-.86.27-1.57-.45-1.59-1.6a2.78,2.78,0,0,1,1.62-2.71C56.09,105.23,56.78,106,56.78,107.14Z" style="fill:#f0f0f0"></path><path d="M78.87,109c-.06.42-.07.82-.17,1.23a3.92,3.92,0,0,1-1.31,2.31c-.85.62-1.63.78-2.09.05s-.77-.67-1.5-.09-1.65.93-2.21.21a2.48,2.48,0,0,1-.08-2.43,16.41,16.41,0,0,1,2.54-4.44c1.92-2.22,4-2.07,4.47.39C78.69,107.13,78.76,108.1,78.87,109Z" style="fill:#f0f0f0"></path><path d="M73.9,102a5.57,5.57,0,0,1,.57-2.38A2.69,2.69,0,0,1,76,98c.59-.15.92.28,1.07,1a4.74,4.74,0,0,1-.32,2.71,3.16,3.16,0,0,1-1.73,2.07c-.63.14-1.1-.41-1.16-1.38C73.89,102.22,73.9,102.1,73.9,102Z" style="fill:#f0f0f0"></path><path d="M77.65,102.26a5.9,5.9,0,0,1,1.55-3.8c.78-.81,1.6-.68,1.82.3A5.63,5.63,0,0,1,79.78,103C78.69,104.25,77.65,103.91,77.65,102.26Z" style="fill:#f0f0f0"></path><path d="M80.51,107.28c-.94.54-1.52-.11-1.29-1.45a4.66,4.66,0,0,1,2.14-3.2c.81-.33,1.28.3,1.1,1.46A4.86,4.86,0,0,1,80.51,107.28Z" style="fill:#f0f0f0"></path><path d="M73.37,104.46a4.58,4.58,0,0,1-.44,2c-.53,1.12-1.36,1.62-1.92,1.18s-.7-2.2-.06-3.53c.52-1.08,1.4-1.59,1.93-1.12A2,2,0,0,1,73.37,104.46Z" style="fill:#f0f0f0"></path></g></g></g><g id="freepik--Cartpet--inject-83"><g id="freepik--Carpet--inject-83"><path d="M468.62,321,351.89,253.61c-4.78-2.76-12.53-2.76-17.32,0L108.17,384.32c-2.39,1.38-3.58,3.19-3.58,5v2.62c0,1.81,1.19,3.62,3.58,5L224.9,464.33c4.78,2.76,12.53,2.76,17.32,0l226.4-130.71c2.39-1.38,3.59-3.19,3.58-5V326C472.2,324.19,471,322.38,468.62,321Z" style="fill:#9CAAB0"></path><path d="M468.62,321,351.89,253.61c-4.78-2.76-12.53-2.76-17.32,0L108.17,384.32c-2.39,1.38-3.58,3.19-3.58,5v2.62c0,1.81,1.19,3.62,3.58,5L224.9,464.33c4.78,2.76,12.53,2.76,17.32,0l226.4-130.71c2.39-1.38,3.59-3.19,3.58-5V326C472.2,324.19,471,322.38,468.62,321Z" style="opacity:0.30000000000000004"></path><path d="M108.17,394.32,224.9,461.71c4.78,2.77,12.53,2.77,17.32,0L468.62,331c4.78-2.76,4.78-7.24,0-10L351.89,253.61c-4.78-2.76-12.53-2.76-17.32,0L108.17,384.32C103.39,387.08,103.39,391.56,108.17,394.32Z" style="fill:#9CAAB0"></path><path d="M338.1,273.67,433.88,329,238.69,441.66l-95.78-55.3L338.1,273.67m0-2.1L139.28,386.36l99.41,57.39L437.51,329l-99.41-57.4Z" style="fill:#fafafa"></path><path d="M336.54,288.65l71.39,41.21L240.25,426.68l-71.39-41.22,167.68-96.81m0-2L165.35,385.46l74.9,43.24,171.19-98.84-74.9-43.24Z" style="fill:#fafafa"></path></g></g><g id="freepik--Characters--inject-83"><g id="freepik--family--inject-83"><path id="freepik--shadow--inject-83" d="M385.42,282.35l-50.28-29-.57.29L108.17,384.32l-.51.33,50.28,29c4.79,2.76,12.54,2.76,17.33,0L385.42,292.35C390.2,289.58,390.2,285.11,385.42,282.35Z" style="opacity:0.15"></path><g id="freepik--Couch--inject-83"><path d="M157.42,387.33h-15L144.83,402h0a2.71,2.71,0,0,0,1.46,1.8,8,8,0,0,0,7.24,0A2.71,2.71,0,0,0,155,402h0Z" style="fill:#fafafa"></path><ellipse cx="149.93" cy="386.94" rx="7.52" ry="4.34" style="fill:#fafafa"></ellipse><path d="M81.21,343h-15l2.4,14.61h0a2.67,2.67,0,0,0,1.45,1.8,8,8,0,0,0,7.25,0,2.67,2.67,0,0,0,1.45-1.8h0Z" style="fill:#fafafa"></path><path d="M68.4,339.53c-2.94,1.7-2.94,4.45,0,6.14a11.72,11.72,0,0,0,10.63,0C82,344,82,341.23,79,339.53A11.78,11.78,0,0,0,68.4,339.53Z" style="fill:#fafafa"></path><path d="M386.65,200.59v69.79A16.13,16.13,0,0,1,379.38,283l-2.1,1.22-.1.05a16.31,16.31,0,0,1-9.08,1.56L180.25,390.06a16.2,16.2,0,0,1-7.18,12.08l-.07,0-2.09,1.22a2.86,2.86,0,0,1-.55.28,2.1,2.1,0,0,1-.3.15s-.07,0-.09,0a16.56,16.56,0,0,1-11.27.52,11.72,11.72,0,0,1-1.26-.47c-.07,0-.14-.05-.2-.09-.3-.13-.59-.28-.86-.43L61.86,348.82a16.08,16.08,0,0,1-7.26-12.58l0-108a16.13,16.13,0,0,1,7.27-12.59L270.32,95.21a16,16,0,0,1,14.53,0l5.92,3.4a19.32,19.32,0,0,1,8.37,12.52L304.85,145l74.53,43A16.13,16.13,0,0,1,386.65,200.59Z" style="fill:#37474f"></path><path d="M290.77,98.62l-5.92-3.42a16.1,16.1,0,0,0-14.53,0L61.86,215.64c-.43.24-.89.57-.75.46A16.61,16.61,0,0,0,54.67,227c.53-3.71,3.55-5.05,7.18-3l5.92,3.42a16,16,0,0,0,14.53,0L290.77,107C294.78,104.69,294.78,100.94,290.77,98.62Z" style="fill:#455a64"></path><path d="M386.65,200.59v69.79A16.13,16.13,0,0,1,379.38,283l-2.1,1.22-.1.05a15.44,15.44,0,0,1-8.51,1.61,14.22,14.22,0,0,1-5.92-1.66L295.5,245.34a16.13,16.13,0,0,1-7.27-12.59V163a16.08,16.08,0,0,1,7.27-12.59l9.35-5.41,74.53,43A16.13,16.13,0,0,1,386.65,200.59Z" style="fill:#263238"></path><path d="M304.85,145l-9.36,5.41c-4,2.31-4,6.08,0,8.39l67.26,38.83A16.12,16.12,0,0,1,370,210.19V280c0,4.61,3.27,6.5,7.26,4.19l2.1-1.21a16.13,16.13,0,0,0,7.26-12.58v-69.8A16.13,16.13,0,0,0,379.38,188Z" style="fill:#455a64"></path><path d="M370,210.19V280c0,4.61,3.27,6.5,7.26,4.19l2.1-1.21a16.13,16.13,0,0,0,7.26-12.58v-69.8a14.93,14.93,0,0,0-2.13-7.15L367.88,203A14.84,14.84,0,0,1,370,210.19Z" style="fill:#37474f"></path><path d="M367,285.84a17.52,17.52,0,0,1-2.66,4c-1.54,1.73-4.83,3.62-6.83,4.78C332,309.38,214.6,377.19,189,391.94a8,8,0,0,1-7.26,0L158.15,378.3,110.89,351c-4-2.31-7.27-7.71-7.27-12.06s3.25-9.75,7.27-12.06L137.7,311.4l20.45-11.8,121.14-70a16.12,16.12,0,0,1,14.53,0l67.25,38.84c4,2.32,7.27,7.72,7.27,12.07A13,13,0,0,1,367,285.84Z" style="fill:#263238"></path><path d="M189.05,376.21,364.7,274.72c2-1.15,3.64-.22,3.64,2.1v7.35a8,8,0,0,1-3.64,6.29L189.05,391.94c-2,1.16-3.64.22-3.64-2.09V382.5A8,8,0,0,1,189.05,376.21Z" style="fill:#37474f"></path><path d="M279.28,193.61,110.89,290.89a16,16,0,0,0-7.27,12.59v14.7a16.06,16.06,0,0,0,7.27,12.58l67.26,38.83a16,16,0,0,0,14.53,0l168.39-97.28a16,16,0,0,0,7.27-12.58V245a16,16,0,0,0-7.27-12.58l-67.26-38.83A16,16,0,0,0,279.28,193.61Z" style="fill:#37474f"></path><path d="M185.42,339.84v31.5a14.81,14.81,0,0,1-7.27-1.75l-67.26-38.82a16.07,16.07,0,0,1-7.27-12.59v-14.7c0-4.34,2.87-9.56,6.53-12.11-3.26,2.33-3,5.75.74,7.92l67.26,38.82A14.86,14.86,0,0,0,185.42,339.84Z" style="fill:#263238"></path><path d="M192.68,338.11l168.39-97.28c4-2.32,4-6.07,0-8.39l-67.26-38.83a16,16,0,0,0-14.53,0L110.89,290.89c-4,2.32-4,6.08,0,8.39l67.26,38.83A16,16,0,0,0,192.68,338.11Z" style="fill:#455a64"></path></g><g id="freepik--characters--inject-83"><g id="freepik--Bottom--inject-83"><path d="M350.82,285.52s-6.85,16.79-7.2,23.41c-.36,6.9-2,9.19-.86,16.7.25,1.63,1.11,4.91,1.33,6.24a2,2,0,0,1-1.78,2.44c-3,.62-8-5-10.33-11.12a181,181,0,0,1-5.93-21.58,9.42,9.42,0,0,1,.95-4.83,15.15,15.15,0,0,1,1.37-2.51c1-3,1.47-8.71,2.3-12.66Z" style="fill:#ffa8a7"></path><path d="M320.19,307.9a7.17,7.17,0,0,0-.8,2.26c-.07,1.37,3,5.91,4.26,7.56a11,11,0,0,1,2.24,7.85c-.18,4.4,1.77,8.64,4.61,12.28a30.37,30.37,0,0,0,15.06,9.85c7.27,2.24,9.83-1.41,9.83-1.41s2.25-3.5.9-4.94S320.19,307.9,320.19,307.9Z" style="fill:#263238"></path><path d="M328.37,294.27c-.22,0-.61-.07-1.18.62-.21.26-1.54,3.53-2.64,5.25s-4,5-4.36,7.76c1.69,5.39,6.74,9.14,7.5,14.22s.84,11,8.66,17.22,15.86,6.87,18.75,5.22,2.63-4.74-1.4-10.64c-4.28-6.25-7.16-19.81-7.16-19.82-.53-2.36-.07-6.34-2.42-7.8a8.84,8.84,0,0,0-3.77-1c-1.49-.16-3.12-.29-4.35.56a5,5,0,0,0-1.82,3.35,29.25,29.25,0,0,1-.68,3.85c-.12.4-.36.84-.77.9-.62.09-1-.69-1.08-1.31l-1.87-9.77-.92-4.76C328.63,296.9,328.07,295.49,328.37,294.27Z" style="fill:#37474f"></path><path d="M358.2,306.14s3.39,20.48,7.17,28.42,5.71,11.78,10.91,17.8c1.13,1.3,3.71,3.74,4.64,4.8a2,2,0,0,1-.22,3.15c-2.31,2.21-12.11,2.74-17.61-1.38s-10.5-12.9-13.77-16.21c-1.23-1.25-2.39-2.52-3.5-3.87s-.77-2.54-.86-4c0-.71.05-2.63.05-2.63-.75-3.45-2.78-8.86-3.86-12.22Z" style="fill:#ffa8a7"></path><path d="M343.08,347.69a7.5,7.5,0,0,0,.25,2.5c.55,1.33,5.51,4.23,7.41,5.25a11.58,11.58,0,0,1,5.62,6.42c1.8,4.25,5.54,7.4,9.86,9.57A31.73,31.73,0,0,0,384.86,374c7.88-1.13,8.68-5.72,8.68-5.72s.56-4.33-1.36-5.08S343.08,347.69,343.08,347.69Z" style="fill:#263238"></path><path d="M344.73,331.14c-.21.1-.61.21-.84,1.11-.09.35.12,4-.16,6.15s-1.55,6.49-.65,9.29c4,4.35,10.46,5.64,13.45,10.11s5.71,10,15.89,12.43,18.07-.59,20.07-3.44.37-5.66-6.08-9.44c-6.84-4-15.62-15.55-15.63-15.56a49,49,0,0,1-3.29-5.12c-.61-1.07-.52-2.11-2.07-2.32a5.72,5.72,0,0,0-2.24.28,43.32,43.32,0,0,0-4.31,1.4,3,3,0,0,0-1.78,1.26,3.19,3.19,0,0,0,.08,2.25l2.25,7.77c-3-1.73-4.86-4.93-6.76-7.85a21.64,21.64,0,0,0-3.81-4.66,10.49,10.49,0,0,0-2.34-1.56c-.31-.15-1.14-.28-1.35-.52s-.13-.64-.22-.68S344.73,331.14,344.73,331.14Z" style="fill:#455a64"></path><path d="M313,189.53c8.39,6.15,37.63,23,49.5,34,3.43,3.17,4.56,7.35,3.72,16.46-1.15,12.36-10.86,54.49-10.86,54.49-1.34,2.38-3.69-2.13-3.69-2.13l-46.34-58.82Z" style="fill:#9CAAB0"></path><path d="M313,189.53c8.39,6.15,37.63,23,49.5,34,3.43,3.17,4.56,7.35,3.72,16.46-1.15,12.36-10.86,54.49-10.86,54.49-1.34,2.38-3.69-2.13-3.69-2.13l-46.34-58.82Z" style="opacity:0.30000000000000004"></path><path d="M353.37,281.39c-10.72-9-45.35-63.6-45.35-63.6l0,0c4.71-4,7.14-17.8,7.14-17.8,1.87,5.33-.1,13.37-1.55,16.31,2.72,2.36,18.13,15,28.83,23.5,2.69,2.13,5.43,4.75,6.35,9.59C351,261,353.62,279,353.37,281.39Z" style="opacity:0.30000000000000004"></path><path d="M313,189.53h0l-59.65,13.2c2.92,11,3.75,16.6,6.79,22.37s6.42,12,21.94,19.59c14.93,7.35,33.18,14.92,36.83,16.66,2.75,1.31,4.06,6.81,5.3,13.94,1.3,7.48,1.42,13.33,8.82,29,7.24,15.37,8.72,18.69,8.72,18.69s11.21,1.16,18.65-5.38c0,0-10.15-52.7-12.31-62.18-1.21-5.3-1.24-8.1-7.81-13.92-5.64-5-30.83-24.05-30.83-24.05S319.47,204,313,189.53Z" style="fill:#9CAAB0"></path><path d="M313,189.53h0l-59.65,13.2c2.92,11,3.75,16.6,6.79,22.37s6.42,12,21.94,19.59c14.93,7.35,33.18,14.92,36.83,16.66,2.75,1.31,4.06,6.81,5.3,13.94,1.3,7.48,1.42,13.33,8.82,29,7.24,15.37,8.72,18.69,8.72,18.69s11.21,1.16,18.65-5.38c0,0-10.15-52.7-12.31-62.18-1.21-5.3-1.24-8.1-7.81-13.92-5.64-5-30.83-24.05-30.83-24.05S319.47,204,313,189.53Z" style="opacity:0.30000000000000004"></path></g><g id="freepik--Top--inject-83"><path d="M342.67,166c-.18-.72-.41-1.49-.7-2.3-.17-.48-.35-1-.55-1.49-.14-.32-.28-.68-.44-1.06l-.51-1.18c-.15-.34-.3-.68-.46-1-.32-.69-.66-1.39-1-2.11-.18-.36-.36-.72-.55-1.08s-.37-.73-.57-1.1c-.38-.73-.78-1.47-1.19-2.21l-.66-1.17c-5.35-9.5-12.48-20-16.75-26.45-4.91-7.46-7.82-9.79-17.21-9.27,0,0,.68,12.17,2.55,26.82l7,12.77,9.1,16.58-8.61,6.74,0,0a38.09,38.09,0,0,0,4.66,9.61q.24.33.48.63a11.57,11.57,0,0,0,2,2l.33.24.33.22a3.79,3.79,0,0,0,.34.2l.34.18.34.15.35.13.35.11.36.09.56.08H323l.46,0h.1a6.2,6.2,0,0,0,.71-.12l.12,0h0l.34-.1a4,4,0,0,0,.45-.16l.18-.07a8.21,8.21,0,0,0,.8-.38l0,0c.58-.32,1.15-.63,1.69-1s.93-.53,1.38-.78l.19-.11,1.51-.9,1-.62.3-.19h0C345.48,179.52,345,175.29,342.67,166Z" style="fill:#ffa8a7"></path><path d="M338.39,164.87s2.8,11.18-5.68,19.36l-.36,3.45h0l-.3.19-1,.62-1.51.9-.19.11c-.45.25-.9.52-1.38.78s-1.11.63-1.69,1l0,0a8.21,8.21,0,0,1-.8.38l-.08,0-.1,0-.1,0-.35.13-.34.1h0l-.12,0a6.2,6.2,0,0,1-.71.12h-.1l-.46,0h-.49l-.56-.08-.36-.09-.35-.11-.35-.13-.34-.15-.34-.18a3.79,3.79,0,0,1-.34-.2l-.33-.22-.33-.24c-2.77-2.16-5.13-6.59-7.12-12.29l8.61-6.74-9.1-16.58L336,151.25l.66,1.17c.41.74.81,1.48,1.19,2.21.2.37.39.74.57,1.1s.37.72.55,1.08c.36.72.7,1.42,1,2.11.16.34.31.68.46,1l.51,1.18c.16.38.3.74.44,1.06.2.51.38,1,.55,1.49A10.57,10.57,0,0,1,338.39,164.87Z" style="fill:#f28f8f"></path><path d="M302.67,115.17c6.08-.36,10.72.68,15.3,6.28s15.64,22.78,19.9,33.18a48.94,48.94,0,0,1-23.07,11.9l-12.13-25.77Z" style="fill:#9CAAB0"></path><path d="M254.75,120.62c-1,5.2-10.85,54.6.38,91.44,20.23,2.38,55.75-6.9,61.08-20.29,0,0-3.59-12.71-5.15-18.92.33-10.19,0-29.64-.2-35.66-.41-11.92-2.27-21.15-8.19-22,0,0-11.9-.8-19.07-.17A131.32,131.32,0,0,0,254.75,120.62Z" style="fill:#fafafa"></path><path d="M292,103.2c-.16-2.55,4.4-10.4,6.34-16.53,3.26-10.25,3.18-19.32-6.14-22.85,0,0-6.16-9.6-20.59-9.45s-25,12.81-19.46,28.86Z" style="fill:#37474f"></path><path d="M287.71,87.77c1.88-.08,2.44-2.81,3.67-4.32a5.57,5.57,0,0,1,8.66.69c2.84,3.73.5,9.4-2.32,11.68-3.53,2.87-5.55.35-5.55.35l.58,20.1s4.79,8.28-3.79,9.92c-10.59,2-15-4-16.81-7.8l-.55-7.07a38.29,38.29,0,0,1-8.83.39c-3.22-.35-7.65-2.26-8.86-7.33A75.6,75.6,0,0,1,254,70c3.29,2.36,18.17,6.41,31.18,1.16C285.1,79.29,285.87,87.86,287.71,87.77Z" style="fill:#ffa8a7"></path><path d="M271.6,111.32s7.64-1.64,10.7-4c2.26-1.74,4.51-5.94,4.95-7.33,0,0-1.27,6.05-3.35,8.63-3.63,4.52-12.06,5.23-12.06,5.23Z" style="fill:#f28f8f"></path><path d="M271.25,88.4a2,2,0,0,0,2.05,2,2.08,2.08,0,1,0-2.05-2Z" style="fill:#263238"></path><path d="M273.12,81.49l4.42,2.08a2.56,2.56,0,0,0-1.21-3.33A2.4,2.4,0,0,0,273.12,81.49Z" style="fill:#263238"></path><path d="M254.6,81.9l4.76-1.22a2.36,2.36,0,0,0-2.91-1.82A2.59,2.59,0,0,0,254.6,81.9Z" style="fill:#263238"></path><path d="M255.73,87.24a2,2,0,1,0,2.08-2A2,2,0,0,0,255.73,87.24Z" style="fill:#263238"></path><path d="M274.18,98.3l-8.46,3.09a4.73,4.73,0,0,0,5.94,2.74A4.4,4.4,0,0,0,274.18,98.3Z" style="fill:#b16668"></path><path d="M273.06,100.32a3.84,3.84,0,0,1,1.4.21,4.32,4.32,0,0,1-2.8,3.6,4.45,4.45,0,0,1-2.25.19v0A3.82,3.82,0,0,1,273.06,100.32Z" style="fill:#f28f8f"></path><path d="M252.47,72.12c-5.12-1.83-5.34-4.3-5.26-5.48a2.45,2.45,0,0,1,2.22-2.35,10.24,10.24,0,0,1-2.64-3,3.51,3.51,0,0,1,.18-3.78,3.65,3.65,0,0,1,2.46-1.14,17.26,17.26,0,0,1,2.78.08c4.86.31,8.76-1.84,13.27-3.12a32.57,32.57,0,0,1,13.75-.83c7.89,1.16,12.74,6.91,12.94,11.29-1.39,3.2-3.43,5-7,7.34l-.24.2a27.19,27.19,0,0,1-9.15,4.75,28.43,28.43,0,0,1-6.8,1.44c-2.86.27-9.2.13-11.46-2.39-.93-1,.15-2.16.88-2.36a21.65,21.65,0,0,1-5.27-.48C252.94,72.26,252.7,72.2,252.47,72.12Z" style="fill:#37474f"></path><path d="M266,96.7l-6.86-.46A30.09,30.09,0,0,1,266,84.44Z" style="fill:#f28f8f"></path></g><g id="freepik--Babie--inject-83"><path d="M335.63,163.08c1.62,2.48,3.07,11.59-6,20.82s-20.62,16.88-37.61,17.71-33.87-6.57-32.13-18,16.64-14.18,23.35-16.74S299.69,151.53,312.4,152,335.63,163.08,335.63,163.08Z" style="fill:#9CAAB0"></path><path d="M335.63,163.08c1.62,2.48,3.07,11.59-6,20.82s-20.62,16.88-37.61,17.71-33.87-6.57-32.13-18,16.64-14.18,23.35-16.74S299.69,151.53,312.4,152,335.63,163.08,335.63,163.08Z" style="fill:#fff;opacity:0.7000000000000001"></path><path d="M335.63,163.08a45.82,45.82,0,0,0-10.46-7.43c-7.82,1.29-14.94,3.31-12.88,6.26,4.23,6,12.26,5.26,15.61,6s1.19,6.35-.3,11-10.49,7.72-11.16,6.81.42-4,1.15-6.81a2.5,2.5,0,0,0-2-3.27s-7,10.87-13.39,11.88-24.64-3.41-28.31-5.77-3-7.85,0-11.6c-6.29,2.43-12.78,6.18-13.89,13.5-1.74,11.44,15.14,18.84,32.13,18s28.58-8.47,37.61-17.71S337.25,165.56,335.63,163.08Z" style="opacity:0.05"></path><path d="M327.33,140a8,8,0,0,1-8,8c-3.21,0-5.62-2.89-6.06-5.9a10.59,10.59,0,0,1,.68-5.19A6.91,6.91,0,0,1,317,133.1a6,6,0,0,1,2.82-1,6.93,6.93,0,0,1,3.55,1A8.11,8.11,0,0,1,327.33,140Z" style="fill:#455a64"></path><path d="M342.67,150c0,4.8-1.12,8.07-4.76,10.62-2.72,1.91-6.35,4.72-11.71,5.23-7.27.7-13.73-1.84-16.78-7.72a9,9,0,0,1-.69-6.45c.53-1.89,1.8-3.43,2.79-5.09s1.42-3.58,2.33-5.3a14.69,14.69,0,0,1,3.29-4.11,12.57,12.57,0,0,1,4.31-2.78,15.53,15.53,0,0,1,5-.77A16,16,0,0,1,342.67,150Z" style="fill:#b16668"></path><path d="M327.89,151.94c0,.27-.39-.53-1.37-1.17a3.06,3.06,0,0,0-2-.47,4,4,0,0,0-.5.1c-.27.08-.24-.29.26-.63a2.42,2.42,0,0,1,1-.39,2.36,2.36,0,0,1,2.61,2.05A2.17,2.17,0,0,1,327.89,151.94Z" style="fill:#263238"></path><path d="M317.92,147.13c-.05.25-.29-.51-1.1-1.19a2.76,2.76,0,0,0-1.77-.64,3.42,3.42,0,0,0-.46,0c-.25,0-.18-.28.31-.54a2.06,2.06,0,0,1,1-.23,2,2,0,0,1,2.11,2.11A2.3,2.3,0,0,1,317.92,147.13Z" style="fill:#263238"></path><path d="M318.06,151.06c-.87-.3-2.15.46-1.38,1.05s2.94,1.74,3,1.2A3.06,3.06,0,0,0,318.06,151.06Z" style="fill:#9a4a4d"></path><path d="M315.77,155.9l3.51.75a1.8,1.8,0,0,1-3.51-.75Z" style="fill:#9a4a4d"></path><path d="M345.08,151.51A12.85,12.85,0,0,1,338,163a17.19,17.19,0,0,1-3.88,1.26h-.05a10.24,10.24,0,0,1-1.21.12h-.12a2.3,2.3,0,0,1-.36,0,4.48,4.48,0,0,1-.57,0,9.41,9.41,0,0,0,2-4.49c.7,1.15,3,.54,3.81-.39a3.77,3.77,0,0,0,1.13-3.79,2.48,2.48,0,0,0-3.55-1.05c-.55.42-.92,1.17-1.61,1.25a.94.94,0,0,1-.52-.1,1.42,1.42,0,0,1-.75-1.06,3,3,0,0,1,.47-1.8,7.35,7.35,0,0,0,.76-1.73c.36-1.8-1.22-3.66-.58-5.38.25-.68.83-1.43.41-2a1.49,1.49,0,0,0-.83-.47c-2.66-.77-5.45-1-8.06-1.91l-.2-.08c-2.55-.91-5-2.64-5.78-5.21a10.82,10.82,0,0,1-.34-2,7.33,7.33,0,0,1,0-2.29,5.89,5.89,0,0,1,1.61-3.22,1.13,1.13,0,0,1,1.13-.41c.44.18.51.75.62,1.22a3.18,3.18,0,0,0,1.39,1.93c.13-.44.17-.9.28-1.34a2.88,2.88,0,0,1,.53-1.26,1.38,1.38,0,0,1,1.2-.53c.56.08.63.47.82.88a9,9,0,0,0,.53.83,6.73,6.73,0,0,0,1.85,2c2.21,1.48,9,.83,13,5.42a7.8,7.8,0,0,1,1.46,6.7l0,.05.19.18,0,0A12.78,12.78,0,0,1,345.08,151.51Z" style="fill:#455a64"></path><path d="M330.68,156.58c0,1.73-1.73,3.13-3.86,3.13s-3.85-1.4-3.85-3.13,1.72-3.13,3.85-3.13S330.68,154.85,330.68,156.58Z" style="fill:#f28f8f;opacity:0.4"></path><path d="M314.47,150.8a3.53,3.53,0,1,1-1.12-4.57A3.34,3.34,0,0,1,314.47,150.8Z" style="fill:#f28f8f;opacity:0.4"></path></g><g id="freepik--Arm--inject-83"><path d="M254.89,121.17c-7.65,1.18-13.82,4.94-15.15,20.46-1,11.55-1.2,39,0,50.25.65,5.87,3,10.53,10.69,12.09s31.82,3.72,51.72.77c8.79-1.31,19.16-5.42,23.55-10,2.82-4.06,3.93-10.82,3.93-10.82-6,4.95-11.95,5-14.21,4.75a2.27,2.27,0,0,1-1.87-1.23,3.08,3.08,0,0,1,.2-2.26c1-2.64,2.84-5.15,2.55-8.07a1.9,1.9,0,0,0-.78-1.5,1.72,1.72,0,0,0-1.63.09c-1.74.9-2.42,3.13-3.88,4.36a22.77,22.77,0,0,0-4.57,5.83c-.75,1.27-1,2.79-2.26,3.66s-3.11,1-4.63,1.08c-7.42.46-35.55-5.67-35.55-5.67l1.12-35.13S269.9,125.89,254.89,121.17Z" style="fill:#ffa8a7"></path><path d="M254.75,120.62c-4.73,1.17-10.85,2.67-13.84,11.48s-2.75,18.3-2.72,26.72.41,24.69.41,24.69,15,3.6,24.56-2.19l2.23-33.74S269.68,125.94,254.75,120.62Z" style="fill:#9CAAB0"></path></g></g><g id="freepik--characters--inject-83"><g id="freepik--bottom--inject-83"><path d="M249.15,377.75c-1.2,0-1.18,2-1.79,4.65a13.21,13.21,0,0,0,0,7.8c1.13,3.24,6.35,3.68,9.1,7.93s6.75,11.91,16,14.12,16.49-.71,18.3-3.45.31-5.42-5.58-9c-6.26-3.78-8-4.89-8-4.89Z" style="fill:#263238"></path><path d="M260.9,361.73s2.77,10.2,5.38,16,6.8,11.33,11.49,16.51c1,1.13,3.34,3.22,4.17,4.13a1.79,1.79,0,0,1-.12,2.77c-2,2-9.65,2.47-14.56-1s-9.19-11.47-12.14-14.32c-1.1-1.07-3.25-2.36-4.25-3.52a5.59,5.59,0,0,1-1.69-3.1,26.84,26.84,0,0,0-1.42-6.2c-1.34-3.9-1.65-4.88-2.66-7.81Z" style="fill:#b16668"></path><path d="M137.61,258.73l26.85,8.73c3.35,9.47,7.29,18.19,20.59,25.55,11,6.1,31.85,15.55,35,17.22s3.71,4.79,4.63,10.5c1,6.14,1.23,11.44,9.53,26.23,7.47,13.29,11.84,21.87,11.84,21.87s9.43,1.79,15.93-4.86c0,0-11.56-55.16-13.82-63.41-1.13-4.15-2.37-8-7.24-12.24-15-13.05-49.93-34.49-49.93-34.49Z" style="fill:#263238"></path><path d="M189.59,279.06c1.43-2.09,2.12-6.67,2-11.19,0,0-1.63,7.73-6.5,11.41l21,24.29,9.74,4.62C215.81,306.51,197.25,284.86,189.59,279.06Z"></path><path d="M214.56,395.38c-1.2-.09-1.78,2.25-2.55,4.84a13.26,13.26,0,0,0-.49,7.78c.94,3.31,6.6,4.34,9.09,8.75s6,12.28,15.19,15,16.5.26,18.47-2.36.63-5.39-5.05-9.29c-6-4.13-7.72-5.35-7.72-5.35Z" style="fill:#263238"></path><path d="M225.59,369.87s3.8,21.15,6.06,27.09,6.13,11.71,10.51,17.15c1,1.19,3.14,3.41,3.92,4.37a1.8,1.8,0,0,1-.29,2.76c-2.1,1.87-10.73,2-15.42-1.78s-8.13-12.37-10.72-15.54c-1.53-1.89-2.76-2.91-3.68-4.13s-1.62-1.92-1.58-3.2a19.45,19.45,0,0,0-1.11-6c-1.28-3.91-5.79-14.82-6.63-17.81Z" style="fill:#b16668"></path><path d="M137.61,258.73c-2.18,9.29-3.9,12.53-1.11,22.17s11.79,18.72,24.63,26.85c10.63,6.72,20.47,13.09,27,17,3.05,1.82,4.72,7.14,5.58,13.15s1.72,13.15,8.21,26.92,9.23,20.93,9.23,20.93,9.74,1,16.62-5.28c0,0-8.41-52-10-60.43-1.24-6.79-2.64-9-4.14-11-8-10.41-29.83-30.9-29.83-30.9s4.41-15.05,7.16-24.29Z" style="fill:#263238"></path></g><path id="freepik--arm--inject-83" d="M257,196.61c-2.92,3.9-7.92,6.7-9.45,6.52.8-1.84,1.91-3.78,2.06-4.86.29-2.14-1.06-3.47-1.85-3.44s-1.15,2.22-2.84,4A22,22,0,0,0,240,206c-.5,1.17-1.2,2.88-2.36,3.45-5.81,2.88-19.32,9.66-28.74,11.39-2.55-6.9-6.86-17.39-9.76-25.92-4.2-12.38-10.61-16.41-22.7-15.4l-.53,12.16c4.38,10.6,16.46,36.65,20.32,42.2,4.85,7,9,6.41,15.13,4.41,8.07-2.65,16.71-6.94,26.84-13.17,5.8-3.55,10.65-5.4,14.58-7.74,10.45-6.23,15.62-12.74,15.53-15.61C268.06,193.77,260.89,191.43,257,196.61Z" style="fill:#b16668"></path><g id="freepik--Kid--inject-83"><path d="M255.35,292.56c6.8,3.93,29.94-8.59,39.09-13.83s11.05-11,4.3-15.16-28,2.07-36.73,10.14S251.53,289.82,255.35,292.56Z" style="fill:#9CAAB0"></path><g style="opacity:0.5"><path d="M255.35,292.56c6.8,3.93,29.94-8.59,39.09-13.83s11.05-11,4.3-15.16-28,2.07-36.73,10.14S251.53,289.82,255.35,292.56Z" style="fill:#fff"></path></g><g style="opacity:0.1"><path d="M255.35,292.56c6.8,3.93,29.94-8.59,39.09-13.83s11.05-11,4.3-15.16-28,2.07-36.73,10.14S251.53,289.82,255.35,292.56Z"></path></g><path d="M255.41,244c-.86,7.11-1.68,15.9,2.51,23,3.13,5.26,6.32,7.77,15.45,10.36,8.21,2.33,15.53,3.87,15.53,3.87a36.28,36.28,0,0,0,.53,11.92c1,4.68,4.52,17.51,4.52,17.51s7,3.79,12.4-1.37c0,0,1.19-24,.95-29.17s2.18-10.15-8.56-16.48c-1.4-.82-30.35-15.15-30.35-15.15Z" style="fill:#f28f8f"></path><path d="M306.35,309.22s.33-6.66.61-13.72a15.3,15.3,0,0,1-6.61,2.89,35.7,35.7,0,0,1-9.56.4c1.38,5.4,3.16,11.8,3.16,11.8S301,314.38,306.35,309.22Z" style="fill:#f0f0f0"></path><path d="M281.71,279.49c-1-2.11-2.93-4.43-6.49-7.09L265,264.76l-9.82-5.34a22.22,22.22,0,0,0,2.7,7.51c3.13,5.26,6.32,7.77,15.45,10.36C276.38,278.15,279.26,278.89,281.71,279.49Z" style="fill:#b16668"></path><path d="M293.26,317.08,326,324.26l.47.16c.25.89.27,2-1.29,3.17-2,1.6-8.58,3.4-14.15,2.45s-9.53-5.41-10.73-6.31c-2.11-1.58-5.67-1.46-6.49-2.13C292.69,319.92,293.26,317.08,293.26,317.08Z" style="fill:#455a64"></path><path d="M308.58,306.16a8,8,0,0,1,.52,2.28,5.13,5.13,0,0,0,1.62,2.47,27.22,27.22,0,0,0,6.15,4.31,58.43,58.43,0,0,0,6.42,2.89,4.78,4.78,0,0,1,2.74,6.15c-.85.88-2.93,2.54-7.14,3.32-4.9.91-8.09.8-12.39-1.35-3-1.5-4-3.26-7-4.74-1.21-.6-4.73-.85-6.27-2.58-1-2-.73-4.36-.6-5.72a20.15,20.15,0,0,0,.09-3.2c-.06-1.09-.49-1.64-.48-2.66,0-.22,0-.77.59-.82l.62,1.41c.76,1.59,3.55,1.77,5.28,1.44-.14-1.22-.4-1.7.09-2.38.6-.85,2-1.11,2.94-1.34a19.88,19.88,0,0,1,4.56-.37,2.94,2.94,0,0,1,1.92.46A1.58,1.58,0,0,1,308.58,306.16Z" style="fill:#9CAAB0"></path><path d="M308.58,306.16a8,8,0,0,1,.52,2.28,5.13,5.13,0,0,0,1.62,2.47,27.22,27.22,0,0,0,6.15,4.31,58.43,58.43,0,0,0,6.42,2.89,4.78,4.78,0,0,1,2.74,6.15c-.85.88-2.93,2.54-7.14,3.32-4.9.91-8.09.8-12.39-1.35-3-1.5-4-3.26-7-4.74-1.21-.6-4.73-.85-6.27-2.58-1-2-.73-4.36-.6-5.72a20.15,20.15,0,0,0,.09-3.2c-.06-1.09-.49-1.64-.48-2.66,0-.22,0-.77.59-.82l.62,1.41c.76,1.59,3.55,1.77,5.28,1.44-.14-1.22-.4-1.7.09-2.38.6-.85,2-1.11,2.94-1.34a19.88,19.88,0,0,1,4.56-.37,2.94,2.94,0,0,1,1.92.46A1.58,1.58,0,0,1,308.58,306.16Z" style="opacity:0.30000000000000004"></path><path d="M326.5,324.42c1.22-3.31,0-5.94-4-7.17s-10,1-12.17,2.93-3.37,4.26-2.06,6.83c0,0,4.53,2.38,11.57,1A11.65,11.65,0,0,0,326.5,324.42Z" style="fill:#fafafa"></path><path d="M232.34,249.74c-1.68,7.1-3.51,15.93-.06,23.56,2.58,5.69,6.45,7.5,14.92,11.46,7.84,3.67,14.89,6.5,14.89,6.5a37.21,37.21,0,0,0-.82,12.15c.45,4.86,2.6,18.27,2.6,18.27s6.72,4.65,12.74,0c0,0,3.94-24.24,4.28-29.49s3.36-10.05-6.82-17.69l-10.18-7.64Z" style="fill:#f28f8f"></path><path d="M278.56,309.32s-1.64,1.32-7.88,1.26-8.78-2-8.78-2c.79,5.79,2,13.14,2,13.14s6.72,4.65,12.74,0C276.61,321.71,277.56,315.88,278.56,309.32Z" style="fill:#f0f0f0"></path><path d="M260.68,327l30.38,15.81.43.29c0,.94-.27,2-2.12,2.78-2.45,1-9.36,1.06-14.61-1.36s-7.94-7.87-8.89-9.08c-1.65-2.12-5.19-2.95-5.82-3.83C259.36,329.64,260.68,327,260.68,327Z" style="fill:#455a64"></path><path d="M278.69,320.3a8.72,8.72,0,0,1-.1,2.39,5.17,5.17,0,0,0,.94,2.86,27.47,27.47,0,0,0,4.91,5.89A58.25,58.25,0,0,0,290,336a4.87,4.87,0,0,1,1.06,6.79c-1.07.64-3.57,1.72-7.92,1.37-5.07-.41-8.19-1.37-11.85-4.63-2.55-2.27-3.08-4.29-5.65-6.54-1-.91-4.43-2.1-5.49-4.21-.45-2.19.44-4.49.94-5.8a20.34,20.34,0,0,0,.93-3.12c.24-1.09,0-1.75.24-2.76.06-.22.21-.75.8-.65l.24,1.56c.32,1.77,3,2.69,4.82,2.82.18-1.24.05-1.78.72-2.32s2.24-.57,3.25-.54a20.61,20.61,0,0,1,4.6.85,2.91,2.91,0,0,1,1.76,1A1.7,1.7,0,0,1,278.69,320.3Z" style="fill:#9CAAB0"></path><path d="M278.69,320.3a8.72,8.72,0,0,1-.1,2.39,5.17,5.17,0,0,0,.94,2.86,27.47,27.47,0,0,0,4.91,5.89A58.25,58.25,0,0,0,290,336a4.87,4.87,0,0,1,1.06,6.79c-1.07.64-3.57,1.72-7.92,1.37-5.07-.41-8.19-1.37-11.85-4.63-2.55-2.27-3.08-4.29-5.65-6.54-1-.91-4.43-2.1-5.49-4.21-.45-2.19.44-4.49.94-5.8a20.34,20.34,0,0,0,.93-3.12c.24-1.09,0-1.75.24-2.76.06-.22.21-.75.8-.65l.24,1.56c.32,1.77,3,2.69,4.82,2.82.18-1.24.05-1.78.72-2.32s2.24-.57,3.25-.54a20.61,20.61,0,0,1,4.6.85,2.91,2.91,0,0,1,1.76,1A1.7,1.7,0,0,1,278.69,320.3Z" style="opacity:0.30000000000000004"></path><path d="M291.49,343.08c2.07-2.94,1.55-5.86-2.08-8.15s-10.17-1.71-12.78-.35-4.45,3.3-3.84,6.18c0,0,3.83,3.55,11.14,4A11.91,11.91,0,0,0,291.49,343.08Z" style="fill:#fafafa"></path><path d="M260.83,195.83c3-.14,6.74-.29,10.48,2.93,3.07,2.64,17.44,19.28,21.19,25.16s3.88,9.17-1.21,13.9-16.14,7-16.14,7Z" style="fill:#f28f8f"></path><path d="M289.24,219.42l-5.47-.45V242.2a29.19,29.19,0,0,0,6.07-3.2,53.2,53.2,0,0,0,1.45-5.19,3.56,3.56,0,0,0-.87-3.52,59.06,59.06,0,0,0,1.16-7.73C290.93,221.64,290.14,220.58,289.24,219.42Z" style="fill:#b16668"></path><path d="M226.45,223.92c-.37-5.27-1.56-11.22-1.62-13.49-.12-4.56-.52-11.21,5.68-12.34s9.68-1.56,9.68-1.56,12.83-.77,15.38-.81,7.65,0,7.65,0c2.64,1.74,6.66,9,9.17,21.12.84,4.06,3.22,24.11,3.65,35.35-16.88,4.27-33.07,6-47.48,1.27C228.56,253.44,227.07,232.78,226.45,223.92Z" style="fill:#9CAAB0"></path><path d="M226.45,223.92c-.37-5.27-1.56-11.22-1.62-13.49-.12-4.56-.52-11.21,5.68-12.34s9.68-1.56,9.68-1.56,12.83-.77,15.38-.81,7.65,0,7.65,0c2.64,1.74,6.66,9,9.17,21.12.84,4.06,3.22,24.11,3.65,35.35-16.88,4.27-33.07,6-47.48,1.27C228.56,253.44,227.07,232.78,226.45,223.92Z" style="opacity:0.2"></path><path d="M233.92,197.41c3.2,5.76,6.32,21.1,6.12,26.23s-9.19,8.32-13,8.41c0,0,.33,18-.53,28s5.14,18,13.49,23.39c7.8,5,15.37,9.13,15.37,9.13a28.08,28.08,0,0,1,12.58-19.5c15.8-10.07,25.1-10,30.81-9.49,0,0-7.65-4.63-12.67-8s-6.52-4.58-7.32-10.39-6.74-41.09-18.08-49.6l-4.23,0s4.95,8.47,6.47,14.84-14.92,7.12-16.55,2.89-3.6-11.28-7.52-16.76Z" style="fill:#9CAAB0"></path><path d="M233.92,197.41c3.2,5.76,6.32,21.1,6.12,26.23s-9.19,8.32-13,8.41c0,0,.33,18-.53,28s5.14,18,13.49,23.39c7.8,5,15.37,9.13,15.37,9.13a28.08,28.08,0,0,1,12.58-19.5c15.8-10.07,25.1-10,30.81-9.49,0,0-7.65-4.63-12.67-8s-6.52-4.58-7.32-10.39-6.74-41.09-18.08-49.6l-4.23,0s4.95,8.47,6.47,14.84-14.92,7.12-16.55,2.89-3.6-11.28-7.52-16.76Z" style="fill:#fff;opacity:0.7000000000000001"></path><path d="M248,224.79a57.7,57.7,0,0,0,19.82-4s2.42,8-.43,11.23c-2.36,2.68-12,4.48-15.85,3S248,224.79,248,224.79Z" style="fill:#9CAAB0"></path><path d="M230.8,183c4.76,5.48,12,6.67,18.82,7,1.65.07,5.44.44,7,0,0,0,2.9-4,4-5.32,3-3.64,3.82-4.94,5.56-10.59,1.14-3.68.07-8.57-1.15-12.19s-3-5.38-5.56-8c-5.7-5.95-16.12-6.86-23-4.8a20.69,20.69,0,0,0-11.17,9,13.53,13.53,0,0,0-.86,13.09c.88,1.7,2.18,3.16,3,4.91.54,1.19.83,2.47,1.32,3.68A12,12,0,0,0,230.8,183Z" style="fill:#263238"></path><path d="M224.15,172.72a35.71,35.71,0,0,0-.23,5.24,13.66,13.66,0,0,0,3.76,9.89c2.76,2.86,6.65,3.78,10.48,3.75l.92,0,.45,5.22c4.61,7.26,19.62,6.2,17.22-.65l-.27-17.2s1.51,2.15,4.64,1c2.06-.76,5.12-4.36,3.45-8.17a3.72,3.72,0,0,0-4.44-1.83c-1.85.51-2.91,3-5.16,2.66-2.09-.29-2.27-2.26-2.9-3.62-1.1-2.37-1.42-3.69-3.37-5.5a9.1,9.1,0,0,0-4.15-1.88,8.79,8.79,0,0,0-8.73,3.15c-3.44-6.61-9-4.52-10.36-.23C224.27,168.15,224.4,170.44,224.15,172.72Z" style="fill:#f28f8f"></path><path d="M241.43,172.56a1.94,1.94,0,1,0,2-2A2,2,0,0,0,241.43,172.56Z" style="fill:#263238"></path><path d="M246.19,168.78l-3.5-1.32a1.87,1.87,0,0,1,3.5,1.32Z" style="fill:#263238"></path><path d="M230.58,166.52,227.09,168a1.9,1.9,0,1,1,3.49-1.49Z" style="fill:#263238"></path><path d="M243.19,180.81l-6.71,2.32a3.51,3.51,0,0,0,4.46,2.33A3.72,3.72,0,0,0,243.19,180.81Z" style="fill:#9a4a4d"></path><path d="M243.05,182.93a2.67,2.67,0,0,0-3.92,2.35,3.11,3.11,0,0,0,1.81-.06A3.36,3.36,0,0,0,243.05,182.93Z" style="fill:#f28f8f"></path><path d="M227.83,171.5a1.95,1.95,0,1,0,2-2A2,2,0,0,0,227.83,171.5Z" style="fill:#263238"></path><path d="M236.29,171.13l-.13,7.88-4.88-1.08A18,18,0,0,1,236.29,171.13Z" style="fill:#b16668"></path><path d="M239.08,191.56a22.22,22.22,0,0,0,11.28-2.95,11.1,11.1,0,0,0,3.78-4.1,10.75,10.75,0,0,1-2.25,4.6c-3.89,4.34-12.64,4.5-12.64,4.5Z" style="fill:#b16668"></path><path d="M273,151.75a5.38,5.38,0,0,1-1.57,4.92,5.07,5.07,0,0,1-8.54,4.81c-1.45-1.48-1.88-3.7-3.17-5.32a19.25,19.25,0,0,0-2.16-2.07,4.53,4.53,0,0,1-1.72-4.49,4.65,4.65,0,0,1,3.53-3.53,4.85,4.85,0,0,1,3.87.8,5.05,5.05,0,0,1,5.62-.83A7.65,7.65,0,0,1,273,151.75Z" style="fill:#263238"></path><path d="M228.48,141.35a5.41,5.41,0,0,1,4.7,2.13,5.08,5.08,0,0,1,3.78,9.05c-1.64,1.27-3.89,1.43-5.65,2.53A19,19,0,0,0,229,157a4.52,4.52,0,0,1-4.66,1.18,4.63,4.63,0,0,1-3.09-3.92,4.77,4.77,0,0,1,1.25-3.74,5.08,5.08,0,0,1-.18-5.69A7.7,7.7,0,0,1,228.48,141.35Z" style="fill:#263238"></path><g id="freepik--Dog--inject-83"><path d="M270.6,214.77a21.72,21.72,0,0,1-2.37-.5,12.49,12.49,0,0,0-4.47-.53,8.36,8.36,0,0,0-4.75,1.89c-.45.45-.62,1.51.14,1.78a.94.94,0,0,0,.4.94,1.61,1.61,0,0,0,1.21.25c0,.43.68.72,1.36.62a9.9,9.9,0,0,1,2.93-.32c2.08.06,2.44.85,2.44.85" style="fill:#455a64"></path><path d="M262.4,217.24a1.85,1.85,0,0,0-2.14,1.36,4.17,4.17,0,0,0,.5,0A1.62,1.62,0,0,1,262.4,217.24Z" style="fill:#37474f"></path><path d="M260.83,216a2.14,2.14,0,0,0-2,1.21.64.64,0,0,0,.34.25A2.1,2.1,0,0,1,260.83,216Z" style="fill:#37474f"></path><path d="M288.94,209.61l-3.39.95-6.86,1.9-.61.15-1.59.26a24.89,24.89,0,0,0-3.31.56l-.25,0a5,5,0,0,0-1.28.22,10.12,10.12,0,0,0-.79.65l-.72.72a3.33,3.33,0,0,0-.25.28l-2.13,3.72A3.76,3.76,0,0,1,266,220.3a4.93,4.93,0,0,0-2.83,1.76.84.84,0,0,0-.7-.38,1.18,1.18,0,0,0-.64-.9,2,2,0,0,0-1.37,0c0-.35-.59-.8-1.78-.54-2.35.53-3.74,1.47-6.19,3-3.05,1.93-4,3.69-4,5.13a2.55,2.55,0,0,0,1.29,2.29s-9.48,9.07,3.51,16.76c12.61,7.47,29.11-.51,34.27-12.47A32.65,32.65,0,0,0,290,225C290.7,218.34,289.39,213.25,288.94,209.61Z" style="fill:#455a64"></path><path d="M243.27,222.85c-1.75.06-2.92,1.62-3.55,3.13a10.2,10.2,0,0,0-.62,5.33,11.06,11.06,0,0,0,6,8.1,12.18,12.18,0,0,0,2.7,1,5.13,5.13,0,0,0,2.92.19.58.58,0,0,0,.18-1,2.86,2.86,0,0,0-1.29-.32,10.2,10.2,0,0,1-1.34-.25,12,12,0,0,1-2.53-1,10.2,10.2,0,0,1-4.05-3.82,9.91,9.91,0,0,1-1.06-7.05c.38-1.55,1.17-3.32,2.72-4,.12,0,.09-.32,0-.31Z" style="fill:#37474f"></path><path d="M262.84,224.29s2-.91,3,.2a1.57,1.57,0,0,1,1.51.09,1,1,0,0,1,.43,1.15.84.84,0,0,1,.72.49,1.69,1.69,0,0,1-.26,1.5,5.92,5.92,0,0,1-3.55,2.9,5.32,5.32,0,0,1,2.64,4.08,8,8,0,0,1-.59,5,19.62,19.62,0,0,0,10.91-7.15c5.78-7.42,3.69-20.52,3.69-20.52l-9.68,1.63a7.53,7.53,0,0,0-3.89,5.37,11.53,11.53,0,0,0-5.56,2.07,1.56,1.56,0,0,1,.22.55,1,1,0,0,1,.7.38A1.63,1.63,0,0,1,262.84,224.29Z" style="fill:#e0e0e0"></path><path d="M277.16,220.77a8.57,8.57,0,0,0-5,1.29c-.51.4-.82,1.45-.09,1.82a1,1,0,0,0,.28,1,1.68,1.68,0,0,0,1.19.41c0,.43.59.81,1.29.8a7.66,7.66,0,0,1,3,0,5.05,5.05,0,0,1,2.47,1.35,27.77,27.77,0,0,0,1.19-5.56A11.41,11.41,0,0,0,277.16,220.77Z" style="opacity:0.1"></path><path d="M281.7,220.87a11.54,11.54,0,0,0-4.54-1.25,8.42,8.42,0,0,0-5,1.29c-.51.39-.82,1.45-.09,1.81a1,1,0,0,0,.28,1,1.67,1.67,0,0,0,1.19.4c0,.44.59.82,1.29.8a7.87,7.87,0,0,1,3,.05,5.1,5.1,0,0,1,2.78,1.69l3.19-4.92A11,11,0,0,1,281.7,220.87Z" style="fill:#455a64"></path><path d="M275.15,223a1.54,1.54,0,0,0-1.55.14,1.29,1.29,0,0,0-.56.94,3.54,3.54,0,0,0,.48.05C273.56,223.39,274.37,223,275.15,223Z" style="fill:#37474f"></path><path d="M271.69,222.35a.76.76,0,0,0,.36.37,1.6,1.6,0,0,1,1.25-.92A1.77,1.77,0,0,0,271.69,222.35Z" style="fill:#37474f"></path><path d="M290.11,218.44c-.24-3.56-.88-6.49-1.17-8.83l-3.39.95-6.86,1.9-.61.15-1.59.26a24.89,24.89,0,0,0-3.31.56l-.25,0a5,5,0,0,0-1.28.22h0a4.81,4.81,0,0,0-.63.36,10.32,10.32,0,0,0,5.91,3.19,20.46,20.46,0,0,0,9.21-.51A3.66,3.66,0,0,0,290.11,218.44Z" style="opacity:0.1"></path><path d="M282.28,196c-.33-1.23-1.86-1.76-4.31-1.81-1.93,0-3.78.55-6.63-.73s-5.2-.71-6,2.18-.12,6.4,3,7.63A12.66,12.66,0,0,0,278.65,202C281.31,200.16,282.28,196,282.28,196Z" style="fill:#37474f"></path><path d="M273.82,194.74a2.82,2.82,0,0,0,.15-.57,9.07,9.07,0,0,1-2.63-.75c-2.85-1.29-5.2-.71-6,2.18a8.33,8.33,0,0,0-.25,3,4.77,4.77,0,0,0,1.84.64,1.65,1.65,0,0,0,1.46-.43c.42-.51.26-1.33.7-1.82s1.37-.36,2.11-.39A3,3,0,0,0,273.82,194.74Z" style="fill:#e0e0e0"></path><path d="M290,201.42c-1.36-2.95-2.13-3.6-5.93-4.95s-6.14-1.18-9.49.87c-2.1,1.3-2.94,4.74-2.94,4.74a5.14,5.14,0,0,0-3.45,2c-1.47,2.25-.35,6.27.6,7.62a10.43,10.43,0,0,0,6.47,4.19c4.89,1,8.83.66,11.29-1.81C289.66,211,291,203.56,290,201.42Z" style="fill:#455a64"></path><path d="M283.18,203.51a1.12,1.12,0,1,1-1.12-1.12A1.12,1.12,0,0,1,283.18,203.51Z" style="fill:#263238"></path><path d="M275.24,201.42a1.12,1.12,0,1,1-1.12-1.12A1.12,1.12,0,0,1,275.24,201.42Z" style="fill:#263238"></path><path d="M272.53,210.65h0a.27.27,0,0,1-.22-.31l.51-2.59a.25.25,0,0,1,.31-.21.26.26,0,0,1,.21.31l-.5,2.59A.26.26,0,0,1,272.53,210.65Z" style="fill:#263238"></path><path d="M274.13,204.72c-1.36-.42-2.43-.35-2.68.16a2.82,2.82,0,0,0,.63,2.62,2.29,2.29,0,0,0,1.78.56c.77-.08,2-.58,2.24-1.4S275.6,205.16,274.13,204.72Z" style="fill:#263238"></path><path d="M272,204.82a.85.85,0,0,0-.34,1.09c.16.28.43-.76,1.17-.76a5.69,5.69,0,0,1,2.4.81c.46.3.48-.25-.44-.71A3.38,3.38,0,0,0,272,204.82Z" style="fill:#37474f"></path><path d="M274.17,210.9a4.1,4.1,0,0,1-.49,0,3.6,3.6,0,0,1-2.58-1.11.26.26,0,1,1,.42-.32,3.29,3.29,0,0,0,2.21.9,3.94,3.94,0,0,0,3-.84.27.27,0,0,1,.37.4A4.3,4.3,0,0,1,274.17,210.9Z" style="fill:#263238"></path><path d="M287.82,198.23c1.5.18,4.49.89,5.41,2.32s3.85,6.2,3,10.67a6.76,6.76,0,0,1-6.95,5.73c-2.45-.25-3.95-1.38-2.72-4.9s2.13-8.48,1.24-10.85C287,199,286.15,198,287.82,198.23Z" style="fill:#37474f"></path><path d="M295.13,204.08a6.48,6.48,0,0,1-2.46,2.13,6.23,6.23,0,0,0-1.32.72,1.27,1.27,0,0,0-.49,1.33c.2.6.91.81,1.51,1s1.31.53,1.32,1.16c0,.45-.37.83-.4,1.28a1.17,1.17,0,0,0,1.32,1.11,2.38,2.38,0,0,0,1.53-.94c.05-.2.1-.41.14-.63A12.84,12.84,0,0,0,295.13,204.08Z" style="fill:#e0e0e0"></path><path d="M262.84,224.29c-4,1.76-7.87,3.72-8.6,6a2,2,0,0,0,1.23,2.84s-2-.1-2-1.94S255.13,226.55,262.84,224.29Z" style="fill:#37474f"></path><path d="M265.78,226.24c.45-.05,1.28-.36,1.35-.91,0-.38-.28-.45-.6-.45a2,2,0,0,0-1.2.44C264.81,225.78,265.13,226.33,265.78,226.24Z" style="fill:#37474f"></path><path d="M266.5,227.6c.45,0,1.32-.13,1.49-.66.11-.36-.2-.49-.51-.54a2,2,0,0,0-1.26.21C265.63,227,265.85,227.56,266.5,227.6Z" style="fill:#37474f"></path><path d="M263.74,225.54c.42,0,1.21-.22,1.32-.71s-.22-.44-.5-.47a1.86,1.86,0,0,0-1.15.3C262.89,225,263.14,225.56,263.74,225.54Z" style="fill:#37474f"></path><path d="M264.13,226.5c-.48-.44-1.18-.85-3.28-.25s-2.84,1.58-2.33,2c.74.64,2-.37,1.68,1.13-.16.85,1,1.48,2.87,0S264.65,227,264.13,226.5Z" style="fill:#37474f"></path><path d="M260.17,222.56c.45-.06,1.28-.36,1.34-.91.05-.38-.27-.45-.59-.45a2,2,0,0,0-1.2.44C259.2,222.09,259.52,222.64,260.17,222.56Z" style="fill:#37474f"></path><path d="M260.88,223.92c.46,0,1.33-.13,1.49-.66.12-.36-.19-.49-.5-.54a2,2,0,0,0-1.26.21C260,223.28,260.24,223.88,260.88,223.92Z" style="fill:#37474f"></path><path d="M258.12,221.86c.43,0,1.22-.22,1.33-.71s-.22-.44-.51-.47a1.85,1.85,0,0,0-1.14.3C257.28,221.34,257.52,221.88,258.12,221.86Z" style="fill:#37474f"></path><path d="M258.51,222.82c-.47-.45-1.17-.85-3.27-.25s-2.84,1.58-2.33,2c.74.64,2-.37,1.68,1.13-.16.85,1,1.48,2.87,0S259,223.32,258.51,222.82Z" style="fill:#37474f"></path><path d="M289,230.69c-.68-.13-1.05.2-1.78.75s-1.6,1.23-2.22,1.74a15,15,0,0,1-4.05,2.4,14.55,14.55,0,0,1-3.56.91,16.14,16.14,0,0,1-3.67.17,1.79,1.79,0,0,1-1.42-.66,1.9,1.9,0,0,1,.06-1.58,18.76,18.76,0,0,0,.94-3.1c.16-.91.25-2.81-.59-3.45a1,1,0,0,0-1.13.06,6.36,6.36,0,0,0-1,1.27,37.58,37.58,0,0,0-2.77,4,5.42,5.42,0,0,0-1.88-2.48c2.52-1.85,2.36-3,2.36-3-1.37,2-4.55,2.92-4.55,2.92a5.4,5.4,0,0,1,3,4.6,13.19,13.19,0,0,1-1.59,2.66,10.07,10.07,0,0,1-4.59,3c-1.25.43-7.33,1-12.83,1.46a15.75,15.75,0,0,0,5.58,5.05c12.61,7.47,29.11-.51,34.27-12.47a31.07,31.07,0,0,0,1.47-4.24Z" style="opacity:0.1"></path></g><path id="freepik--arm--inject-83" d="M277.58,248.36A33.18,33.18,0,0,0,284.5,244a12.11,12.11,0,0,0,2.82-2.71,20.91,20.91,0,0,0,2-3.54,10.6,10.6,0,0,0,.9-5.05c0-.52-.24-1.15-.76-1.24-.69-.13-1.11.77-1.5,1.19a17.06,17.06,0,0,1-1.71,1.69,15,15,0,0,1-4.05,2.39,14.55,14.55,0,0,1-3.56.91,16.11,16.11,0,0,1-3.67.17,1.77,1.77,0,0,1-1.41-.65,1.9,1.9,0,0,1,.06-1.58,20.22,20.22,0,0,0,.94-3.11c.15-.9.24-2.8-.6-3.45a1,1,0,0,0-1.12.07,6.07,6.07,0,0,0-1,1.26,33.53,33.53,0,0,0-3,4.33,27.34,27.34,0,0,1-2.44,4.37c-1.17,1.44-3,2.16-6.57,2.28-4.32.14-17.48-1.64-22.2-2.86L235.54,217s-2-15.55-6-18.63c-7.38.4-10.38,4.85-11,9.73s2.81,31.58,5,38.19,4.64,6.8,12.8,7.82C243.16,254.94,262.4,255,277.58,248.36Z" style="fill:#f28f8f"></path></g><g id="freepik--top--inject-83"><path d="M141.08,246.42c1.38-3.06,1.85-6.54,1.38-8.54-.7-2.94-3.72-22.41-3.72-22.41s5.65-9.23,6.33-14.13.53-8.3-1.85-16.93l10-2A64.7,64.7,0,0,1,170,179.9l6.45-.36s15,14.17,17.25,20.48c1.44,4.12,3.25,11.63-2.79,20.76-.09,4.88,0,13.84.24,17.72s3.56,13.82,4.13,17.39c-2.2,5.07-12,14-35.15,12.54-18.49-1.16-24-9.34-24-9.34A112.08,112.08,0,0,1,141.08,246.42Z" style="fill:#9CAAB0"></path><path d="M174.79,221.26s-4.62,5.58-14.33,3.79-11.5-9.17-11.5-9.17-.74,9.45,10.87,11.54C171.26,229.48,174.79,221.26,174.79,221.26Z" style="opacity:0.1"></path><path d="M163.57,162.15c2.42-2.07,4.74-4.55,7.42-6.27,3.52-2.26,8.75,0,12.41.79,3.08.67,6.44,1,9.27-.45s4.76-5,3.39-7.82a7.5,7.5,0,0,0,2.29-13.92,7.16,7.16,0,0,0-7.17-12.26,8.38,8.38,0,0,0-2.86-8c-3.12-2.55-7.59-2.32-11.13-.84-1.87.79-3.47,2-5.37,2.77-3.95,1.53-8.22.9-12.27,2.16a26.77,26.77,0,0,0-10.43,6.08c-4.91,4.66-8.52,11.75-8.84,18.51a25.84,25.84,0,0,0,3.59,15.23c2.77,4.42,6.61,7,9.18,11.44C156.2,166.9,160.41,164.84,163.57,162.15Z" style="fill:#263238"></path><path d="M145.32,147.17c1.82-2,5.07-2.53,6.84-.15.56.76.93,1.63,1.41,2.43a4.18,4.18,0,0,0,2,1.88,2.26,2.26,0,0,0,1.6-.05,1.17,1.17,0,0,0,.78-1.22c.06-1.21-.12-2.46,0-3.67,5.1-1.78,5-3.67,5.69-8.16,3.59-3.84,9.79-4.38,15.14-.66,3.31-6.31,6.85-5.49,8.38-3.52a25,25,0,0,1,2.25,7.34,48.8,48.8,0,0,1,.8,11.57c-.74,15-5.72,18.62-8.2,19.62s-5.48.25-10-.63l-.05,9c4.65,9,8.37,22.7,8.15,31.6-7.2-13.79-18.53-21.21-23.87-26.23a20.24,20.24,0,0,1-3.23-3.77l.12-24.86c-1.57,1.84-4.31,1.77-6.65-.15C143.67,155.27,142.52,150.31,145.32,147.17Z" style="fill:#b16668"></path><path d="M172,172c-3.91-1-8.14-2.55-11-4.81a13.67,13.67,0,0,1-4.24-6s.31,5.8,3.21,8.43,12,5.69,12,5.69Z" style="fill:#9a4a4d"></path><path d="M172.71,151a2.08,2.08,0,1,1-2.35-1.88A2.15,2.15,0,0,1,172.71,151Z" style="fill:#263238"></path><path d="M187.5,149.23a1.91,1.91,0,0,1-1.61,2.19,1.82,1.82,0,0,1-2.14-1.7,1.89,1.89,0,1,1,3.75-.49Z" style="fill:#263238"></path><polygon points="177.1 146.57 178.52 159.11 184.96 156.69 177.1 146.57" style="fill:#9a4a4d"></polygon><path d="M171.63,144.67l-4.71,2.13a2.71,2.71,0,0,1,1.33-3.51A2.53,2.53,0,0,1,171.63,144.67Z" style="fill:#263238"></path><path d="M170,160.64l6.77,2.34a3.75,3.75,0,0,1-4.68,2.25A3.5,3.5,0,0,1,170,160.64Z" style="fill:#9a4a4d"></path><path d="M170.18,162.22a3.5,3.5,0,0,1,3.3,3.19,3.41,3.41,0,0,1-3.65-3.14C170,162.27,170.06,162.21,170.18,162.22Z" style="fill:#f28f8f"></path><path d="M188.12,145.3l-4.75-2.12a2.5,2.5,0,0,1,3.36-1.38A2.73,2.73,0,0,1,188.12,145.3Z" style="fill:#263238"></path><path d="M150.14,171.83a7.8,7.8,0,0,1-4-14.51,11.36,11.36,0,0,0,.93.73,6.72,6.72,0,1,0,3-.73.54.54,0,0,1-.54-.54.55.55,0,0,1,.54-.55,7.8,7.8,0,1,1,0,15.6Z" style="fill:#9CAAB0"></path><path d="M161.53,292.65c.21,3.31,1.17,11.84-.34,17.77-1.69,6.64-.17,15.26,12.18,18.49,13.65,3.57,21.48-3.21,28.16-5.34,6.92-2.21,5.13-7.86-.34-7-6.59,1.05-16.88,8.77-26.52,5.78-9-2.81-7.41-9.35-6.52-13a23.68,23.68,0,0,0,.54-7.88Z" style="fill:#e0e0e0"></path><path d="M211.79,232.87c-1.93-2.32-7-4.17-9.66-1.93-1.52,1.27,1.81,7.4,1.81,7.4S209.77,236.46,211.79,232.87Z" style="fill:#e0e0e0"></path><path d="M219.65,255.48c-.5-.32-.57,2-.56,2.1a8.63,8.63,0,0,0,1,2.7,15.49,15.49,0,0,1,1.29,6.47A11.63,11.63,0,0,1,218,274.8c-2.72,2.6-6.63,3.47-10.36,4a57,57,0,0,0-7.33,1.25,9.84,9.84,0,0,0-3.41,1.36,6.56,6.56,0,0,0-1.64,2.77c-.8,2.1-1.26,6.13-6.51,6.92s-11.58-6.84-11.58-6.84-1.55-12.9,8.5-21S208.67,248.31,219.65,255.48Z" style="fill:#fafafa"></path><path d="M220.92,262.68a9.29,9.29,0,0,1,4.11,2,10.33,10.33,0,0,1,2.66,3.74,11,11,0,0,1,.53,4.66,8.8,8.8,0,0,1-1.11,3.82,8,8,0,0,1-3.35,3.07,9.83,9.83,0,0,1-4.46,1,4.65,4.65,0,0,1-1.74-.3,2.12,2.12,0,0,1-1.2-1.24,6.24,6.24,0,0,1-.61-.29,1.48,1.48,0,0,1-.4-.61c-.17-.56.14-.84.27-1.31a1.57,1.57,0,0,1-.23-1.64c.37-1.13,3-1.67,4.94-4.05A14.33,14.33,0,0,0,220.92,262.68Z" style="fill:#e0e0e0"></path><path d="M219.81,232.41c1.4-2.15,5.48-4.23,8-2.61,1.41.92-1.21,7.21-1.21,7.21S221.89,235.24,219.81,232.41Z" style="fill:#e0e0e0"></path><path d="M221.82,234.21c2.32,1.48,4.77,2.8,4.77,2.8s2.62-6.29,1.21-7.21C226.84,229.38,224,230.23,221.82,234.21Z" style="fill:#ffa8a7"></path><path d="M226,236a2.82,2.82,0,0,1,.58-.73c.14-.4.31-.86.46-1.36a5.8,5.8,0,0,0-2.25-.52,2.14,2.14,0,0,1,.62-1.39,2.53,2.53,0,0,0-2.75,2,4.39,4.39,0,0,0,1,1.47c.51.26,1,.47,1.35.64A2.44,2.44,0,0,0,226,236Z" style="fill:#f28f8f"></path><path d="M222.85,233.89a2.59,2.59,0,0,1,2.63-1.39,2.14,2.14,0,0,0-.62,1.39s2.53,0,3.08,1.37a2.25,2.25,0,0,0-1.9,1.29C223.77,237.22,222.85,233.89,222.85,233.89Z" style="fill:#f5f5f5"></path><path d="M179.87,305.69c3.29,1.28,9,4,11,4.55s5.43.12,9-.24,5.89-.49,7.76-.62c3.48-.22,4-3.63.19-4.88a21.66,21.66,0,0,0-7.19-.78Z" style="fill:#e0e0e0"></path><path d="M212.23,231.91a18.54,18.54,0,0,1,8.35.22,9.7,9.7,0,0,1,5.41,3.7,19.78,19.78,0,0,1,2.34,6c1,3.74,1.29,7.61-1.67,10.58a11,11,0,0,1-5.86,2.92,19.86,19.86,0,0,1-6.06-.11c-1.65-.22-3.14-.28-4.51.88a7.86,7.86,0,0,0-2.2,3.63c-1.06,3.22-1.24,7,.59,10,2.66,4.3,6.07,6.48,12.28,8.48s13.26,5.17,15.73,7.34c2.3,2,3,3.77,2.12,4.94,0,0,.05,2.14-2.5,1.67a2.21,2.21,0,0,1-2.37,1.24c-1.9-.48-3.22-2.3-4.95-3.64a13.39,13.39,0,0,0-7-2.59c-2.79-.22-14.4-1.87-19.52-6.26s-6.8-8.07-10.65-9.31-8.83,2.66-10,4.7-1.74,6.44-.9,8.29a24.24,24.24,0,0,1,8.86,3.57c4.51,2.94,5.62,6.94,8.15,7.79s4.58-.53,10.56.24,7.51,2.27,8.26,3.59-.05,3.18-2.83,3.16-7.28-.58-9.87-.14-7.46,2.58-9.54,2.72c-2.63.17-19,2.89-27.31-5.46a29.06,29.06,0,0,1-8.75-24.53c.77-7,9.91-17.28,17.27-20.41,4.29-1.82,8.69-3.35,13-5,2.37-.9,4.74-1.81,7.06-2.83,1.44-.64,3.51-1.33,4.59-2.54,2-2.25,2.93-5.18,4.6-7.65A11.79,11.79,0,0,1,212.23,231.91Z" style="fill:#f0f0f0"></path><path d="M209.7,235.25a20.09,20.09,0,0,1-5.76,3.09s-3.33-6.13-1.81-7.4C203.19,230.31,206.62,230.91,209.7,235.25Z" style="fill:#ffa8a7"></path><path d="M205.07,234.38a2.48,2.48,0,0,0-.91-1.53,3.12,3.12,0,0,1,3.67,1.76s-.17,3.8-2.9,3.33a2.64,2.64,0,0,0-1.78-1.2c-.2-.43-.42-.93-.62-1.44A6.69,6.69,0,0,1,205.07,234.38Z" style="fill:#f28f8f"></path><path d="M217,250.05a2.46,2.46,0,0,1-1.37-.48.27.27,0,1,1,.34-.42,1.81,1.81,0,0,0,1.19.36,1.48,1.48,0,0,0,.94-.58V247a.27.27,0,0,1,.54,0v2a.27.27,0,0,1-.06.17,2,2,0,0,1-1.36.85Z" style="fill:#455a64"></path><path d="M219.76,250h-.22a2,2,0,0,1-1.36-.85.27.27,0,0,1,.43-.33,1.53,1.53,0,0,0,1,.65,1.83,1.83,0,0,0,1.19-.36.27.27,0,0,1,.37,0,.26.26,0,0,1,0,.38A2.43,2.43,0,0,1,219.76,250Z" style="fill:#455a64"></path><path d="M218.41,244.86c1.8,0,2,.52,1.8,1.15a3.15,3.15,0,0,1-1.78,1.44c-.43.06-2-.8-2.08-1.49S216.71,244.89,218.41,244.86Z" style="fill:#f28f8f"></path><path d="M211.27,241.9a1.47,1.47,0,1,0,1.33-1.68A1.52,1.52,0,0,0,211.27,241.9Z" style="fill:#455a64"></path><path d="M224,241.12a1.47,1.47,0,1,1-1.6-1.44A1.54,1.54,0,0,1,224,241.12Z" style="fill:#455a64"></path><path d="M211.48,245.93l0,0a.29.29,0,0,0-.05-.41,5.27,5.27,0,0,0-6-1,.3.3,0,0,0,.26.53,4.77,4.77,0,0,1,5.36.89A.27.27,0,0,0,211.48,245.93Z" style="fill:#455a64"></path><path d="M211,246.71a.24.24,0,0,0,.06-.08.3.3,0,0,0-.15-.39,4.87,4.87,0,0,0-4.05.11.28.28,0,0,0-.09.39.27.27,0,0,0,.38.12,4.36,4.36,0,0,1,3.53-.1A.26.26,0,0,0,211,246.71Z" style="fill:#455a64"></path><path d="M211.62,247.82a.3.3,0,0,0,.08-.16.31.31,0,0,0-.24-.34,5.66,5.66,0,0,0-4.94,1.81.31.31,0,0,0,0,.41.28.28,0,0,0,.4,0h0a5.1,5.1,0,0,1,4.44-1.64A.28.28,0,0,0,211.62,247.82Z" style="fill:#455a64"></path><path d="M224.23,245.65l0,0a.32.32,0,0,1,0-.42,5.29,5.29,0,0,1,5.77-1.78.29.29,0,0,1,.18.37.29.29,0,0,1-.36.2,4.73,4.73,0,0,0-5.18,1.6A.27.27,0,0,1,224.23,245.65Z" style="fill:#455a64"></path><path d="M224.86,246.35l-.06-.07a.3.3,0,0,1,.09-.41,5,5,0,0,1,4-.45.3.3,0,0,1-.22.56,4.35,4.35,0,0,0-3.52.37A.26.26,0,0,1,224.86,246.35Z" style="fill:#455a64"></path><path d="M224.35,247.54a.3.3,0,0,1,.1-.52,5.66,5.66,0,0,1,5.13,1.12.31.31,0,0,1,0,.41.27.27,0,0,1-.39.06h0a5.08,5.08,0,0,0-4.62-1A.28.28,0,0,1,224.35,247.54Z" style="fill:#455a64"></path><path d="M208.67,236.2c.12-2.53-2.84-4-3.92-3.68a2.55,2.55,0,0,1,.8,1.6s-3,.16-3.55,1.75c0,0,2.52.14,3,2.26A3.15,3.15,0,0,0,208.67,236.2Z" style="fill:#f0f0f0"></path><path d="M114.71,241.29c2.88-13.3,5.29-22.78,7.54-31.74,4.29-17.12,5.48-22.51,21-25.14,0,0,3.62,4.44,3.1,14.94-.46,9.39-2.7,12.89-2.7,12.89l-9.17,33.06c5.13,5.72,18.49,18.14,21.82,20.29,4.5,2.91,9.64,4.33,14.53,6.5,3.24,1.44,6.25,3.15,9.39,4.78a1.7,1.7,0,0,1,.47.32,1,1,0,0,1,.1,1.09,1.9,1.9,0,0,1-.81.8,6.29,6.29,0,0,1-5.49.27c-1.5-.49-2.75-1.41-4.57-1.52-.36,0-.74.05-.63.5a3,3,0,0,0,.48.87,12.63,12.63,0,0,0,4.87,2.89,20.49,20.49,0,0,0,5.36,1.24,22.2,22.2,0,0,1,4.38.68,3.25,3.25,0,0,1,1.29.67c1.86,1.74-1.41,2.67-2.16,3.71-.39.55-1.06,1.5-1.51,2a4.44,4.44,0,0,1-1.63.84,21.34,21.34,0,0,0-2.2,1.32,10.26,10.26,0,0,1-5.85,1,33.19,33.19,0,0,1-5-1,21.93,21.93,0,0,1-9.55-4.67,28.3,28.3,0,0,1-3.08-3.39c-.83-1-1.64-2.07-2.52-3a56.58,56.58,0,0,0-4.65-4.21c-2.39-1.69-16.24-9.76-29.83-21.09C111.66,251.21,113.44,247.17,114.71,241.29Z" style="fill:#b16668"></path></g></g><path d="M163.64,399.2V329.4a16.13,16.13,0,0,0-7.26-12.58l-74.53-43L76.15,240a19.31,19.31,0,0,0-8.38-12.51L61.86,224c-4-2.31-7.27-.42-7.27,4.19v108a16.12,16.12,0,0,0,7.27,12.58l94.52,54.57C160.37,405.7,163.64,403.81,163.64,399.2Z" style="fill:#263238"></path><path d="M180.27,319.79v69.8a3.7,3.7,0,0,1,0,.47,16.2,16.2,0,0,1-7.18,12.08l-.07,0-2.09,1.22a2.86,2.86,0,0,1-.55.28,2.1,2.1,0,0,1-.3.15s-.07,0-.09,0l-.58.22a17,17,0,0,1-10.69.3,11.72,11.72,0,0,1-1.26-.47c3.49,1.44,6.19-.52,6.21-4.7v-69.8a16.1,16.1,0,0,0-7.27-12.59l-13.19-7.61L81.85,273.8l9.37-5.42a16.16,16.16,0,0,1,14.53,0l54.08,31.22L173,307.2A16.11,16.11,0,0,1,180.27,319.79Z" style="fill:#455a64"></path><path d="M163.65,329.41v69.8c0,4.18-2.72,6.14-6.21,4.7a11.72,11.72,0,0,0,1.26.47,17,17,0,0,0,10.69-.3l.58-.22s.05,0,.09,0a2.1,2.1,0,0,0,.3-.15,2.86,2.86,0,0,0,.55-.28l2.09-1.22.07,0a16.2,16.2,0,0,0,7.18-12.08,3.7,3.7,0,0,0,0-.47v-69.8a14.79,14.79,0,0,0-2.13-7.15l-16.63,9.61A14.84,14.84,0,0,1,163.65,329.41Z" style="fill:#37474f"></path></g></g><g id="freepik--Plant--inject-83"><g id="freepik--Pot--inject-83"><g id="freepik--pot--inject-83"><path d="M44,380.35c-8.42-8.69-13.37-44.07-5.16-51H80.68c8.21,6.9,3.27,42.27-5.15,51-.07.08-.16.15-.23.24l-.29.28c-.24.23-.49.46-.76.69a1.56,1.56,0,0,0-.2.16c-.21.16-.41.32-.64.48a11.92,11.92,0,0,1-1.09.71c-6.93,4-18.17,4-25.1,0h0a11.92,11.92,0,0,1-1.09-.71c-.21-.15-.4-.3-.6-.46l-.25-.19c-.26-.22-.5-.44-.73-.66l-.33-.33Z" style="fill:#9CAAB0"></path><path d="M44,380.35c-8.42-8.69-13.37-44.07-5.16-51H80.68c8.21,6.9,3.27,42.27-5.15,51-.07.08-.16.15-.23.24l-.29.28c-.24.23-.49.46-.76.69a1.56,1.56,0,0,0-.2.16c-.21.16-.41.32-.64.48a11.92,11.92,0,0,1-1.09.71c-6.93,4-18.17,4-25.1,0h0a11.92,11.92,0,0,1-1.09-.71c-.21-.15-.4-.3-.6-.46l-.25-.19c-.26-.22-.5-.44-.73-.66l-.33-.33Z" style="opacity:0.30000000000000004"></path><path d="M77.05,326.61c9.54,5.57,9.54,14.6,0,20.17s-25,5.57-34.55,0-9.54-14.6,0-20.17S67.51,321,77.05,326.61Z" style="fill:#9CAAB0"></path><path d="M77.05,326.61c9.54,5.57,9.54,14.6,0,20.17s-25,5.57-34.55,0-9.54-14.6,0-20.17S67.51,321,77.05,326.61Z" style="opacity:0.1"></path><path d="M72.46,329.29c7,4.09,7,10.72,0,14.81s-18.37,4.09-25.37,0-7-10.72,0-14.81S65.45,325.2,72.46,329.29Z" style="fill:#455a64"></path><path d="M47.09,336.32c7-4.09,18.36-4.09,25.37,0a11.61,11.61,0,0,1,4.19,3.89,11.7,11.7,0,0,1-4.19,3.89c-7,4.09-18.37,4.09-25.37,0a11.65,11.65,0,0,1-4.2-3.89A11.57,11.57,0,0,1,47.09,336.32Z" style="fill:#f5f5f5"></path></g><g id="freepik--Plants--inject-83"><path d="M83,267.66,66.23,279.1l15.81-6a28.84,28.84,0,0,1-3.12,12.15s-10.44,5.07-16.12,10.42l13.91-4.38a68,68,0,0,1-2.29,15.35c-1.19,4.43-5.25,12.64-7.76,16.9a51.3,51.3,0,0,1-3.82,5.64c-.08.12-.17.23-.26.35q-3.87-2.6-8.06-5.06c-1.6-4.1-3.37-14.08-3.7-22.17-1.21-31,23.27-46.94,42.37-51.53C93.19,250.78,86.2,258.38,83,267.66Z" style="fill:#9CAAB0"></path><path d="M83,267.66,66.23,279.1l15.81-6a28.84,28.84,0,0,1-3.12,12.15s-10.44,5.07-16.12,10.42l13.91-4.38a68,68,0,0,1-2.29,15.35c-1.19,4.43-5.25,12.64-7.76,16.9a51.3,51.3,0,0,1-3.82,5.64c-.08.12-.17.23-.26.35q-3.87-2.6-8.06-5.06c-1.6-4.1-3.37-14.08-3.7-22.17-1.21-31,23.27-46.94,42.37-51.53C93.19,250.78,86.2,258.38,83,267.66Z" style="opacity:0.2"></path><path d="M69.62,268a23.3,23.3,0,0,0-4.35,5.24,48.28,48.28,0,0,0-3.06,6.1,62.85,62.85,0,0,0-3.75,13.1,57.81,57.81,0,0,0,1.48,26.92h0a.45.45,0,0,1-.3.56.44.44,0,0,1-.55-.3h0a58.38,58.38,0,0,1-1-27.27,62.31,62.31,0,0,1,4-13.1,46.79,46.79,0,0,1,3.17-6.08A23.16,23.16,0,0,1,69.62,268Z" style="fill:#fafafa"></path><path d="M8.88,276.84l0,0c.39.49,6.66,8.44,15.87,23.81l16,3.09-11.94,1.71,6.07,10.29,15.74,3.76-12.43,1.64S41.29,333.34,50,338.64c4.81,2.93,7.18,3.43,8.69,2.08,1.06-1,1.48-6.73,2.49-11.87S62.51,315.3,58,305a31.87,31.87,0,0,0-4.85-7.61C41.78,284,19.83,277,8.88,276.84Z" style="fill:#9CAAB0"></path><path d="M8.88,276.84l0,0c.39.49,6.66,8.44,15.87,23.81l16,3.09-11.94,1.71,6.07,10.29,15.74,3.76-12.43,1.64S41.29,333.34,50,338.64c4.81,2.93,7.18,3.43,8.69,2.08,1.06-1,1.48-6.73,2.49-11.87S62.51,315.3,58,305a31.87,31.87,0,0,0-4.85-7.61C41.78,284,19.83,277,8.88,276.84Z" style="fill:#fff;opacity:0.30000000000000004"></path><path d="M54.56,310.29h0s0,0,0,0a48.13,48.13,0,0,1,3.28,13.42h0a144.28,144.28,0,0,1-.08,17.48,2.62,2.62,0,0,0,.9-.52c1.06-1,1.48-6.73,2.49-11.87S62.51,315.3,58,305a31.87,31.87,0,0,0-4.85-7.61C41.78,284,19.83,277,8.88,276.84c16.73,3.27,34.45,15,43,28.29A33.82,33.82,0,0,1,54.56,310.29Z" style="opacity:0.1"></path><path d="M25.56,282.63c8.21,3.9,15.94,9.16,21.92,16.15A43.6,43.6,0,0,1,54.8,310.4a41.64,41.64,0,0,1,3.1,13.34.07.07,0,0,1,0,.05,0,0,0,0,1,0,0,53.68,53.68,0,0,0-3.83-13,50.41,50.41,0,0,0-7-11.52,57.73,57.73,0,0,0-9.85-9.34,75.26,75.26,0,0,0-11.57-7.19,0,0,0,1,1,0-.08Z" style="fill:#fafafa"></path><path d="M108.74,288.26h0a33.82,33.82,0,0,0-4.06,0A64.42,64.42,0,0,0,89,291.14c-1.89.58-3.79,1.26-5.66,2-.94.39-1.87.79-2.79,1.23a44.66,44.66,0,0,0-12.35,8.31,27.89,27.89,0,0,0-4.4,5.51c-.16.26-.33.51-.48.78h0c-.39.69-.74,1.37-1.07,2a38.77,38.77,0,0,0-4.54,18.85c-.09,4.63,1.18,10,2,10.91a3,3,0,0,0,.39.32c1.27.91,3.39.53,7.42-1.44,8.08-3.95,11.78-14.88,11.78-14.88l-10.8-2.45,14.15-2,6.17-8.55L78.5,309.3l14.33-1.4a210.83,210.83,0,0,1,15.89-19.62l0,0Z" style="fill:#9CAAB0"></path><path d="M104.68,288.23A64.42,64.42,0,0,0,89,291.14c-1.89.58-3.79,1.26-5.66,2-.94.39-1.87.79-2.79,1.23a44.66,44.66,0,0,0-12.35,8.31,27.89,27.89,0,0,0-4.4,5.51c-.16.26-.33.51-.48.78h0c-.39.69-.74,1.37-1.07,2a38.77,38.77,0,0,0-4.54,18.85c-.09,4.63,1.18,10,2,10.91a3,3,0,0,0,.39.32,2.51,2.51,0,0,0,.85.36c-.57-7.21,4-25.16,9.69-32.33,6-7.45,19.75-18,38.05-20.87v0A33.34,33.34,0,0,0,104.68,288.23Z" style="opacity:0.1"></path><path d="M60.93,341.48a61.78,61.78,0,0,1,1.9-15.77A51,51,0,0,1,68.92,311a36.09,36.09,0,0,1,5.13-6.16,51.85,51.85,0,0,1,6.15-5.12,59.84,59.84,0,0,1,14.08-7.42,0,0,0,0,1,.06,0,0,0,0,0,1,0,.05,78.06,78.06,0,0,0-13.6,8.06,63.36,63.36,0,0,0-6,5,34.51,34.51,0,0,0-5.16,5.91,50.72,50.72,0,0,0-6.24,14.44A61.25,61.25,0,0,0,61,341.48a0,0,0,0,1,0,0A0,0,0,0,1,60.93,341.48Z" style="fill:#fafafa"></path></g></g></g><g id="freepik--Hearts--inject-83"><path id="freepik--Heart--inject-83" d="M343.16,104.41a6.17,6.17,0,0,0,.4-4.37h0v0a6.25,6.25,0,0,0-3.24-3.88c-2.83-1.38-6.67.57-8.36,3.13,1-2.9.16-7.13-2.67-8.51a6.19,6.19,0,0,0-5.05-.17h0a6.15,6.15,0,0,0-3.2,3c-2.14,4.38.74,8.79,2.75,13.33l2.11,4.78,5.07-1.27C335.77,109.23,341,108.8,343.16,104.41Z" style="fill:#9CAAB0"></path><path id="freepik--heart--inject-83" d="M222.12,81.69a6.15,6.15,0,0,0-1.92-3.94h0l0,0a6.2,6.2,0,0,0-4.78-1.65c-3.13.28-5.41,3.94-5.53,7-.67-3-3.56-6.19-6.69-5.9a6.16,6.16,0,0,0-4.41,2.46l0,0h0a6.15,6.15,0,0,0-1.19,4.22c.44,4.87,5.19,7.15,9.25,10l4.28,3,3.69-3.71C218.29,89.65,222.56,86.56,222.12,81.69Z" style="fill:#9CAAB0"></path><path id="freepik--heart--inject-83" d="M118,148.51a6.17,6.17,0,0,0-3.48-2.66h0a6.2,6.2,0,0,0-5,.69c-2.67,1.66-3,6-1.78,8.74-1.94-2.37-6-3.91-8.63-2.25a6.19,6.19,0,0,0-2.82,4.19v0h0a6.19,6.19,0,0,0,.85,4.3c2.58,4.14,7.85,4,12.76,4.74L115,167l1.62-5C118.15,157.33,120.57,152.65,118,148.51Z" style="fill:#9CAAB0"></path></g></svg>